/* XPM */
static char *_421bb989b4a4ea3932d91654ea3471fm9yXUPWx33OYmqL1[] = {
/* columns rows colors chars-per-pixel */
"75 75 21 1 ",
"  c #747474",
". c gray46",
"X c #767676",
"o c #777777",
"O c gray47",
"+ c #797979",
"@ c gray48",
"# c #7B7B7B",
"$ c #7C7C7C",
"% c gray49",
"& c #7E7E7E",
"* c gray50",
"= c #808080",
"- c #818181",
"; c gray51",
": c #838383",
"> c #848484",
", c gray52",
"< c #868686",
"1 c gray53",
"2 c #888888",
/* pixels */
";;;&&&&&&&##&&&;;;;&&;;&;&&;>>>>###&##o&&&&&&&#o##&&##&&##&&#####&###&&&&&;",
"&&;&&&;&;&&&&&;;;;;##&&#&;&;;;>;&&;;;&;;###&;;&&##&&#######&&###o##oo#&#&&&",
"#&&;;;&;&;&&&&;&;;&#o###;&&;;;;&;&;;;;;&#&&&&&&&##&&####oo#&&&##o####&&#&&&",
"&&&&;&;&&&&#&&&&;&&####&&&&&;;&&&&#&;;&&&&##&##o##############&##&&#&&&&&&&",
";;&&&&;&&&&##&&&;&&###&&###&;;;&;&&&;>;;&#####o ########o##&#&&#o##o##&#;&;",
";;&&#&&&;;&&&&&;;&&#&#&&oo##;&&&;;;;;>;&&#######oo#####o####&#&&#&#oo&&&&&&",
";;&&#&&;;;&&&&&;>;&&####oo#&&&&##;>;&;;;&&&##&##o###o###########&&#o#&;&&&&",
"&&&&&;;;&&&&##&&>;&&#oo#####&&#o&;>;&;;;;&&####oo##oooo#&&######### o#&&&&&",
">&#&;;&#&&###&;&>;####o #&&;;&&&&&&;;;&#;&#o#&#oo########ooo###&##o###&&;&&",
">;&&;>&#&&&&&&;;;;;&#oo##&&;;&&&;&&&&&###&######ooo##oo####o#&&#######&&;>;",
">;&&;;&&&&&#&&&;&;;&#o####&&&&;&&&&&;&&###&##o#&###&#oo#######&&###o##&&#&#",
";;&&;;&#&&&&&&;;;&;&#oo#####&;&&##&&>>;;&&&###o##&&&&###&###&&&&&######&;&;",
";&&&;;&&;&;&&;>>;&&#&##o####&;;;&&&;;;;&;&#####o#&&&########&&&&&##o##&&;;;",
"&&&&&;&&&&&#&&;;>&##&&&#&###;;&;;&;&&;##&#o#&&&o#&&&&&&&###o#&&&&######&##&",
";&&&&&&&######&&&;&&&&&&;&#&;;;&;;&&;&&#&#########&&&&;&#####&##&#######;;;",
"&&&&&;&&;&&&&;&;&;&&###&;&&&>;;&&&;;;>;;&&&##o##oo####&&##o####&&#######&##",
"&&;;;;&&&&&&;&&#&;;;oo#;&&&&&;&&&&&&&;>&&##########&&o#&########&#####o##&&",
"&&;;;&;&&&&&&&##;&&###&&&&#&&&&&&&;&&;;&&&#&#&&&#o#&##o###&####&#####o##&&&",
";;&&&&;&;&&####&;&##&;&#####&&&&&&;&&;;#&&&&&&&####&&###&&#####&########&&&",
";&;&;;&;;&&###&&>;##&&&####&;&;&&;;&&&&#&&&&&&#####&#o#&###&&&######o#o####",
"&;&;;&;&;&&##&&&;;;&&&##&&#;;;;&#&&&&;&#&&&&;&###o###o############ooo####&&",
"&&;;&;;&;;&&&&&;;;;&&#&&&&&&;;;;#&&&&&;&&&&&&&&######o#&&&&&&&&&#oo###o###&",
";;&&&;&;&;;;&;&&&&;;&&&&&&&;;&;&&&;&&&&#&&###&&#&#&&###&&##&&&&#o##oo######",
";;&&&&;;;;;;;;&&#&&&;;;;&&&&&;&&&;&&&&##&#######&&&&&##;&&&&##&&#oooo###&;&",
"&&>;;;>;;;>>;;&&&;;&##&&;;;&;&&&;;;;&&##&####&##&##&;&&#&&&&&&&&########o##",
"&;;;&;;;&;>>;;;&#;>;&;;>;;;;&;;;;;&&&###;&&#####&&&&&;&&&&##&&&###oooooo##&",
";>>;&;;;;;;;;;;;&>>>;;>>&;;&;;;;&;&;&###;&&&&####&;;&&;;&&#&#####ooooooo&&&",
";>>;;;;;&;;>;;;;>>2>>>>;&;;;;;;&&&&&&###&####&###&;;&;;>>;&###ooo#oooooo#&&",
";>;;&;;;;;;>;>;>>2>>;>>>>;>;;;&&&&&&&&&#&#####&#&&#&;;;&;&&#######oooo#o###",
"&;;&&&;&;;;;>;>>;>>;>>>>>>>>;;;&&&&;&&&&;&&#####&##&&;;#####&&&&#########&&",
"&;;;&;;;;>;;;;>>;>>>>22>2>>;;&;&&&;&&&;&;&&#&##o####&###&&##&&&&#####oo#&&&",
";;>>;>>;;;;;;>>>>22>>2>;>>>;&;;;&;&;;;;;&####&##o#&##o##;;&&&#######o#####&",
"&&;&#&;>;;>>;;;>>>>>>>>;##&&;&&#&&&&;&;&&##&;&#&&&&&&&&&&&&&&&&##ooooo##o#o",
"&;;&&&;>;>>>>>;>>>>>>>;>;;;;;;;;&;;;;;;;;&&&;######&&&&#&&#&&#&#o##########",
";&&;&&;;;>>>;;;>>;>>>>>>>>;&;;>>;;;;;;;;;&&&&&####&&&&&&##&##&###o######&&&",
"&&&##&&&&;;;&;;;;>>>>>>>>>;&&;>;;;;;;;;&&##&;&&&&#&&&&####&#&&&&ooo###oo&&&",
"&&##&&&&;;;&&&;;;>;>>2>>;;&;;;;&&;;;;;&&&#&&&&&&###&&&&&&###&&&&#ooooo##&&&",
";&&&&;;;;;;;&;;;;;>>>>>>;&;;;>;&;;&;&&&&;&&&&&&o#&&&&&#&########&&####&&;&&",
">&&&&;;;;;;&&&;>;;;>>2>>;&&;;;;;;;;;;&&&;;;&&&#o##&&&&&&################&&&",
";&&&&;;&;&&&&&&;;;>>>>>>;;&&&;&&;;>;;;&;&;&&&&&o&#&&&&&#&#&#####oo#&#######",
"&&#&&&&&&;;;>;;;&&;;;;;;;;;;&#&&>;>;;&;&&&&&#&####&&&&&#&&&#&&##o##&###o###",
";;;;;>;&&;;;;>;;&;;;;;;;;;&;&&;&;&&;&;;;;&;&&&#&&#&&&#&&&&###&&&&&&;;&&#&&;",
";;&;;>;;;;;;>;;;;;;;;;;;;&#&;;;;&&&;;;;;;&&&&#&##&#&&&&#&###&&&&###&&&##&&&",
"&;&;;;&&&;;;;;;;;;;&&;;;>&#&;;;&&;&&&;;;&&&&&&#&#&&&&&&#&####&&&o######o###",
";;;>>>;;;&&&&;;;;;;;;&;;>;&&;;&&;;;;;;;&&&&&&&#&&&&&&&##&#########&&#&####&",
";;;;;>;;&;;&&&;;;;;;;;;;;;&&;;&&>;;;;&;&&&&&&&&&&&&&&###&&###&###########&&",
";;;;;>;&;;;;;;;>;;;;;&&;&&&&&;;;>;;;&&;&&&&&&&&&&&&&&###&&#o###############",
">;>>>>>;;;;;;;>>;;;>;;;&&&;;&&;>;;;&;&&&&#&&&&&&&&&&#########&&&##oo#######",
"&&;;;&&;&;;&&;;;;;;;;&&&&&&&;>;&>;;&&&&;&#&#&&&#&#&&&&&#&&##&&#######&#####",
"#&&;&&;;&&&;;&;>;;&&&&##&&;;;&;;;;;;;;&&&&##&&&#&#&#&&&#&#&###&#######&####",
"#&;&;&&;&;;;&;;;>;&&&##&#;;&&&>>>;;&&;&;&&#&&&&#&&&&&;&#&&&&#&######&&###&&",
"&;;&&&&&&&;;;;;;>;;&&&;&#&&&&;;>;;;&;&;&;&&&&&##&&&&&;&&&##&&##&#######&&##",
";;;;;&&&&&;;;;&;;;&;&;;>;&&&;;;>;;&;&;;;;&&&&&&#&&&&;&&&&&&&&&#########&&##",
";&&;;>;;&&;;;;;;&&&&&;;;>;&;>>;;;;;&;&;&&&&&&&&#&&#&;&&&&&&&#&&&####&&##&&&",
";;&;>;;&&;;;;&;;&&;&&;;;>;;>>;;;;&&;&;;;;&&&&;&&&&&&&&&#&&&&&&&#######&###&",
";;;&;;&#;&&;&;;>&;;;;;;;&;;;;&&;;;;&;&;;&&&&&;&&&##&&&&#&&&&&#&&#####&###&&",
"&&#&&;;&#&&;&;&;&&&;;&&&;;&&;&&#&&&;;;;&;&&&&&&###&&&&&#&##&&&&;####o##o&&&",
"&&&&&&&&&&;&;&;;&&&;;;;&&&&&&&&&&;;;;;;&;&&&;&&&#&&;&&##&&&&&&&&######o#&#&",
"&&&&;&&&&;;;;;;;;;;&;;;&&##&&&;&;;;;;;&&&&&&&&&&&&&&&&####&&&&&&##&########",
";&&&&;&&&&;;;&;;;;&;;;&&&&#&&;&&;;;;;&&;&&#&&;;&##&&&&&&&&&##&&&&&######&#&",
"&&&&&&;&&;;;&&;&;&&;;&&&&;&&&;&&;;;;&&;&&&&&&;;&#&&&&&;&&##&&&&&#&&&&##&&&&",
"&&&&;&&&#&&&&&&&;&&&&&;&;&&&;&&&;;;;&;;&&&&&&&&&;&&&&#&#&&&&########&&&&&#&",
"&&&&&;&&&;&;;&;&;;&&&;;&&&&&;;;&;;;&&;;;&&&&;&&&;&&&&&#&#&&#&#########&###&",
"&&#&&;&&&;;;;;&;;&&;&;;;###&&&;&;;&&;&;;;;&&&&&#&&&&&;&;#&&#########&##&&&&",
";&;;;&;&;;;;##&;&;&&&&&&&&#&&;;;;;&;&;&&&&&#&&&;#&&&&&&#&&&&&&&&&&&##&&&&#&",
"&;&;&;;&&&&&&&;;;;&;&&&&&&&&&;;;;&&&;;;&&;&&&;&&&&&&&&&&&&&&&&&&#&#&&#&#;&;",
"&&&&;;;;&&&&&;;;;&;&&&&&&&&&;&;&&;&&&;;;;&&&&&&&&&&&&&&&&&&&&&&&&&#####&&;;",
"#&&;&;;&&&#&;>;;&;&;;&&&&&&&&;;;&;&;;;;;;;&&&&&&&&&##&&&&&&&&&&&#####&##&&&",
"&&&;&&&&;&&&;;;&;&;&&&&&;&&&&;;&;;;&&;&&;;&&&;&&&&&##&&&&&&&&&#&&#&####&#&&",
";&;&;&&&;&&;;;&&&;&&&;;&&&&&;&&;;;;;;;;;;;;&&&&&&&&&&&&&&&&&&&&;&#&#&&&&&&&",
"&&&&&&&&&;;;;&&;&&&&&&;&;&&&&;;&;;;;;;;&;&&&;;&&&&&&&&&&&&&&&;&&&&&&&&&&;;;",
"##&;&;&;&;;;;;;;&;&;&;&;;&&&&&;&;;&;;;;;&;;&&;;;#&&&&&&#&&&&#&&&;&;&&&&&&;;",
"&&;&;&;&;;&;&;;;&&&;&&&&&;&;;;;&;;;;;;&;;;&&;&;&;&;&;&&&&;&;;;&&#;&&&##o;;;",
";;&;&;&;;;;&;;&;&&;&;&;&;&;&&;;;;;;;;&;&&&&&&;;;&;&;;;;&&&&;;&&;#&;&&;&&#&&",
";;;;;&;;;;;;;;;;;&&;&;&;&;;;&;;;;;>;;&;;;&&&;;;&;;;&;&&&&&;;;;;&&&&&&>>;&;&"
};
