/* XPM */
static char *_7b198701d934c78aacd53485d1ff375wzvfdXqOWzQHlagp[] = {
/* columns rows colors chars-per-pixel */
"75 75 256 2 ",
"   c #1B1D19",
".  c #291D18",
"X  c #351C15",
"o  c #1E231A",
"O  c #29251B",
"+  c #38281C",
"@  c #312E17",
"#  c #1C2124",
"$  c #2A2826",
"%  c #372925",
"&  c #3B3428",
"*  c #393534",
"=  c #2E2B2F",
"-  c #301C26",
";  c #48291B",
":  c #59291B",
">  c #49331D",
",  c #5A331D",
"<  c #67351C",
"1  c #702D1A",
"2  c #472C26",
"3  c #562B24",
"4  c #43332B",
"5  c #4C342B",
"6  c #4C3B2C",
"7  c #493525",
"8  c #533323",
"9  c #5C3424",
"0  c #5C3A25",
"q  c #53342A",
"w  c #5C342C",
"e  c #533A2C",
"r  c #5B3C2C",
"t  c #543925",
"y  c #483834",
"u  c #543B33",
"i  c #5D3D33",
"p  c #583835",
"a  c #502D33",
"s  c #682D23",
"d  c #633324",
"f  c #6C3B25",
"g  c #63342A",
"h  c #643B2B",
"j  c #6B3D2D",
"k  c #693726",
"l  c #743C2C",
"z  c #7B3C2B",
"x  c #773726",
"c  c #643C33",
"v  c #6C3C34",
"b  c #663A37",
"n  c #743D32",
"m  c #7A3D34",
"M  c #712C28",
"N  c #59422C",
"B  c #5C4333",
"V  c #5C443B",
"C  c #574637",
"Z  c #4D4435",
"A  c #63422C",
"S  c #6C422B",
"D  c #6A4728",
"F  c #74432B",
"G  c #7B432D",
"H  c #78472B",
"J  c #644434",
"K  c #6B4333",
"L  c #6C4A34",
"P  c #64443B",
"I  c #6C443B",
"U  c #6C4B3D",
"Y  c #644B39",
"T  c #744333",
"R  c #7C4433",
"E  c #744B34",
"W  c #7B4A35",
"Q  c #73453A",
"!  c #7B453B",
"~  c #734B3B",
"^  c #7B4C3B",
"/  c #6B543B",
"(  c #79523B",
")  c #77542E",
"_  c #544119",
"`  c #513C41",
"'  c #723F43",
"]  c #5B4843",
"[  c #524A47",
"{  c #644B43",
"}  c #694A44",
"|  c #774B44",
" . c #6C5343",
".. c #69544A",
"X. c #745343",
"o. c #7B5343",
"O. c #775949",
"+. c #785954",
"@. c #675454",
"#. c #7B6459",
"$. c #726350",
"%. c #7A6C66",
"&. c #873B28",
"*. c #953C2A",
"=. c #853D34",
"-. c #943D32",
";. c #A83C2B",
":. c #8A3919",
">. c #84432C",
",. c #8C442C",
"<. c #8A4929",
"1. c #97472B",
"2. c #844434",
"3. c #8C4434",
"4. c #834A34",
"5. c #8C4C35",
"6. c #844B3B",
"7. c #8C4C3A",
"8. c #86453A",
"9. c #9C4434",
"0. c #934C34",
"q. c #9B4C33",
"w. c #944C3B",
"e. c #9B4C3B",
"r. c #944536",
"t. c #8C533D",
"y. c #875539",
"u. c #9C5334",
"i. c #94533C",
"p. c #9C543C",
"a. c #9C5A3C",
"s. c #955737",
"d. c #9A532D",
"f. c #A5482B",
"g. c #A34C33",
"h. c #A44C3A",
"j. c #A84936",
"k. c #B34A36",
"l. c #A45335",
"z. c #A4553C",
"x. c #AB543C",
"c. c #A45C3D",
"v. c #AB5C3C",
"b. c #AA5534",
"n. c #B2553B",
"m. c #B75839",
"M. c #B14F2D",
"N. c #9E623A",
"B. c #A9623B",
"V. c #B5633D",
"C. c #A3622A",
"Z. c #9C471D",
"A. c #C8532E",
"S. c #CA643B",
"D. c #884B43",
"F. c #964D42",
"G. c #835344",
"H. c #8B5442",
"J. c #875948",
"K. c #945342",
"L. c #9B5544",
"P. c #935B44",
"I. c #9C5B43",
"U. c #9C5C4B",
"Y. c #96584B",
"T. c #875B53",
"R. c #975D53",
"E. c #A35443",
"W. c #A45B44",
"Q. c #AC5B44",
"!. c #A45C4B",
"~. c #AA5847",
"^. c #B35C44",
"/. c #B85A46",
"(. c #A85E52",
"). c #AE5449",
"_. c #88624A",
"`. c #9B634C",
"'. c #986549",
"]. c #896557",
"[. c #976857",
"{. c #9A735A",
"}. c #89705B",
"|. c #AC6344",
" X c #A4634B",
".X c #AB634B",
"XX c #A76849",
"oX c #B46444",
"OX c #BB6344",
"+X c #B4644C",
"@X c #BB634B",
"#X c #B36A4C",
"$X c #BB6B4B",
"%X c #B76943",
"&X c #BA734C",
"*X c #A46352",
"=X c #AB6553",
"-X c #AC6B54",
";X c #A76A58",
":X c #B46B53",
">X c #BC6B53",
",X c #B86958",
"<X c #AA745A",
"1X c #B4735B",
"2X c #BA7557",
"3X c #AD734E",
"4X c #886B66",
"5X c #976B63",
"6X c #8C7469",
"7X c #977668",
"8X c #987B75",
"9X c #A87867",
"0X c #B37462",
"qX c #BB7B63",
"wX c #B77967",
"eX c #B67C72",
"rX c #AD7269",
"tX c #C55B44",
"yX c #C25C54",
"uX c #C56749",
"iX c #C46B53",
"pX c #C66A57",
"aX c #C67759",
"sX c #D3795B",
"dX c #CA714D",
"fX c #C37B63",
"gX c #C77966",
"hX c #D1796A",
"jX c #978371",
"kX c #B9836A",
"lX c #AA8777",
"zX c #B98978",
"xX c #B68F76",
"cX c #B7815E",
"vX c #C9825C",
"bX c #CB846B",
"nX c #C68567",
"mX c #D48669",
"MX c #C88976",
"NX c #D38977",
"BX c #CA947B",
"VX c #D79778",
"CX c #D1946E",
"ZX c #E39275",
"AX c #DAA07A",
"SX c #BA9687",
"DX c #B38E84",
"FX c #A7958B",
"GX c #C89985",
"HX c #D69884",
"JX c #D0948B",
"KX c #D3A491",
"LX c #E7AE95",
"PX c #D1AFA7",
"IX c #E3A597",
"UX c #DEC2B2",
/* pixels */
"X.$ 2 > r 2 - Y +.u $ a d k y % O.FX} % i U H.| 2 X.[.h $ ] ..{ 4 $  .T...* $ C c y $ j J.i = 4 ] P + $ p r 8 - y | r + = V ] & * O 2 $ $ # = { y &   ",
"aXQ z.m.z.=.v 1.a.*Xi =.oX#X6.K nXkX X^ 2XvXvXXX7.~.pX:XI wXBXqX{.O.<X_.cX..W fXdXs.W OXuXOX7.H.pXsX3XK @Xk.dXX.T e.w.5.p eXGX;XP t 4.^ ! q I H.| | p ",
"9.U L.).h.k j 9.,.W.A 3.b.v.t.h E.4.t.| ,XmXVX9XW p.v.c.J  XnXqX9Xo.[.y.'.o.,.m.OXL.| mXsXV.w.Y.^./.:XQ iXdX@X~ 0 2.r.3.C [.MX`.I t r.w.=.d v Q T U r ",
"q., r.z.W.S < Q.z.~.l &.;.j.w.F h.XXXXA :XhXsXXXG !.L.|.j t.=XMXrX~ <X9X<XE q.^.OX'.R 2XfX$Xt.P.v.:X3XS uXdXsX^ T 4.F.W.N `.MX0X+.A i.W.F.s S G.J.G.v ",
"g e g j Q X.~ 3 3 d u K F v } 6 r 8 L y 9 c o.X.w q I H...o.J.~ O...Y u / ..O._.T.$.o.O.] T.7 3 d r r a Q L 6.p 2 B h S + b V  .b 7 d E l 2 ; 2 % 2 % ",
"^ `.F.i.XXrX0X| N  X}.H.'.P.[.jXV , P.eXY.6.<XMXqXT o.VXzX<X[.-X1X<Xt.h =XeXBXVXKXHXVX].p T.X.6.^ D.U.rXX.& I [.+.[.5X5X7XD.- r } +.+.+.T.4X| y  .].].",
"p.Q./.d.V.iXn._.T @X#X~.a.L.+Xc.Q 6.$X,X$X~.|.wXgXG.J.ZXHXMX0XW.nXMX XQ E.F.l.!.1X2X@XP.} ,X0XXXE.=X+XwX9XP wX XMXqX0XMX9X(.2 G.i.L.Y.[.R.*XF.c P.1X-X",
"q.V.h.v.m.M.n.W E gX>X>X&X-X>XoXD.3.2X1X#X:X#X0XnXt.G.AXzXNXMXMXNXMXXXc ~.u.d.v.+XaXpX`.J.hX2X:XkXqX$X,XJ.B wX1XwXaXgXqX1X;X4 0.t.e.L.P.w.7.r.e 6.U.L.",
"z 7.k 2.k x 6.g , y.H.y.7.0.i.XX^ J W.-X XW.V.|.>X^ Z a.'.;X;X`.[..Xt.r w.,.3.D.i.I.!.^ r [.P.-X{.*XXX_.c e ;X'.#Xi.R.W.=XP.@ 8.z.i.D.R 3.8.6.w V P.W ",
"& . r r r % & $.#.5 X K Q ^ i q T.O.~ 8 I ].}...5 [.4Xo.+ 7 o.L N 5  .] | u + 8 t P 2 | T.| ] * } | J 6 P } v h 6 O.} } % 6 } % % @ a 4 ; & + + @ + % ",
"( T pXhXaX| H.2XP.K.Q p.#XvX_.G sXcX1X^ 2XNXCX0X3.mXaXiXH.s.>XoXh.m qXzXMXJ.E dX2XwXW wXbXgX;X! bXbXhX[.P.^.f.g.6.uXmX1Xr *X,XR.| a Y.P.~.m n E.2.=.w ",
"l D.uXtXdXv 3.x.E.w.^ +X:XZX;XK.iXnXwXP 2XNXHX0XW 2X#XiXW 4.:XaXc.} aXgXZXT.P aXhXVXJ (.1XbXY.| nXNXHX{.4.x.n.f.J.uX/.BX..7.p.P.Y.i 0X.X2X3.m M.l.).v ",
"=.! aXvXdXU i.$X#X.Xo.aX2XmXN.E.sX&X*X( &XnXCX2X( iXtXuX^ -XaX+X2X} %X2XAXkX| aXV.2X/ U./.aX*X/ ^.bXHX{.,.k.k.g.D.$X>X1X4XH.@X*XR.I ,X|.,XF.D.m.l.).n ",
"q p h D H C p E ~ o.7 0 B k ; k v c w y < j ^ j & 0 i I 4 u I t ; % S T 7.Q y ~ E I 2 3 v s 8 6 T K ~ r w b x n 8 < D T ; S Y.D.Q 2 d S s 2 + K K g 2 ",
"+.4X_.'.[.SXlXO.u 8XDXlX6X[.8X6.6 &  .6X5X5X[.{.5Xi % ^ ].].].J.X.+.q % / ].6X| N O.6X{ & { ].5XO.Y J { ] & V _.FX..@.V T.} y ` ....+.} b { 4 $ $ y V ",
";XE.pXuXhXaXCXqXo.gX@XnX;X-XkX2XY.J.2X1XnXHXnX*X$X=XH.#XXX|.(.|.|.@XY.{ wXwXNXnX1XNXJXzX_.JX1X2X,X2X1XgXNXX.1X2XHXJXgXvXHXAXO.[.,XfXeX0X>X1X Xg 5 eXcX",
"{.qX,X/.dX%X+X=Xf >Xu.z.+Xs.N.*Xt.! &X,XfXiXfXB.XXD.G.XXu.e.w.d.l.L.F.A ;X:X2X1X,X<X1X<X| qXfX|.`.(.;X1XnX| Y.#XwXqX;X|.2XmX`.T.L.t.!.T.7.L.E.b 3 9XxX",
"p.W.`.E.n./.V.v.S @Xx.l.1.OXuXB.s.z uX+X/.uXpXdX$Xi.R |.l.3.K.q.a.XXH.k !.(.^. XE.2XiX`.B aXhX.XaXqX$XiXaX~ L.m.qXgXnXoX.XaX7._.~.K..X(.=X!.L.S 3 5XlX",
"4 2 & 2 a % ; N 6 ; 2 N t B 9 O...J h A J q 7 q < _.}.B 8 I b 2 & X.+.P 7 % k v Q w v ~ u ! } T W v S Q R e ; w J S I R ~ J.~ N r 6 t q 7 V r > & 6 C ",
"].`.I.i.Q % o.{.kX6 G.0XxXlX( nXMXJX~ H.1X;XJ.& jXBXVXO.W $X$X1Xu ;XgXNXo.6 E.*X;XI O.<X*X~ y E.Y.].A u J.5XY.u J.P.[.*Xo.wXMX9XQ 5 $.G.O.% i ].J.| 5 ",
"G.+XoXz.K.T MXkXpXm rXxXUXPX6.uXaXCXL l.uXiX$X .cXcXVX0XI.dXsXgXI 2XsXvX3Xj OX#XuXF.t.OX).!.h dXmXZX:XD.gXmXhXT.I.>X1XI.S nXbXmX=XV zX0XMXV D.k.9.w.8 ",
"^ -XW.E.R.T mXuXS.z 9XBXCXxXJ.$X%XZXJ.Q.dXA.OXO.CXvXZXnX1XmXmXnX} ,XfXmX*XD.hXiX@X!.P.OXx.z.T mXVXbX3XQ MXnXmXJ.a.iX-XXXD bXVXZX+XV GXGXVX..8./.>.6.q ",
"..R.R 2.I ; k x 1 ; > k f N 9 ,.0.qXL x 1.<.a.X.L 4.`.X.A s.P.J.7 j z E f ~ ;Xi.0.8.H <.8.z A |.0X0Xs.E >X,XgX( x z.E.Q.F >.1X@Xi.q ].].{.A k R n w 2 ",
"PXSXjX{.7X4X]   $ ] [ * y y O.C 2 4 $.%.X.#.lXSXFX{ 5 6X8XjX9X5X8X7XO.& 8X8X4X}.6XDX7XY . w @. .U B / #.^ u r U %.5X5X7X8X{ V ; & ` y y Z +.%.%.5 + y ",
"GXMXmX2XnXNXJXP KXJXxXIXKXGXKXAX| 7XLXHXmXCXLXDXbXrX~ CXMXnXqXNXMXbXeX..GXeXGXGX3XgXeX1X% U.bXVXBXkXzXPXLX9X= [.BXBXSXGXGXnX,X..7XwXrXkXzXGXPXIX].6 ).",
"qX:X+X$X$X&X9X] SXKXGXSXKXHXnXsXY J.HXnXaXkXgXNXiXT.| ,X X,X.X=X1X,XP.p fX,X,X>X X0X7.I.4 D.).+X+XsX0X,XNXqXa '.XX;X<X,X XXX>XX.G.2X(.5.*X[.[.*XJ.; ;.",
"aXiX,XaXuXmXwXN |.aXmXaXaXOXOXS.h J.VXVXsXiX@XaXaX( E oX:X>Xa.(.kXgX Xh c./.+X@X^.tXiX$X+ Y.gXn.$Xb./.uXm.&XX.XXq.a.XX0X2X:X+XI 5.V.E.v.#X1XqXgXH.< /.",
"@ 7 5 e 9 J | C B 2 + 2 % X % ; X u J e , > + X ; C C h w w < n 6.v b 4 ; g b A F R c D + ; : v g z x z !  X} R i.P.L.K.t.R m c p f b g v J ..i 2 O g ",
"p k D.H.P y 7XlX{.V O.T.6X5XZ o.xXlX] 6 ;X,X[. .5 eXSX}.5 C U.Y.U.r } 9XG.0 % ~ 2.8.4 K 4X[.X.$ i ~ ( O.C lXSXlXkX{.qXzXzX} ~ ].#...+ u u 5 O C ].O.i ",
"K 1.v.V.-X| VXAXnX_.kXCXCXaX6.gX$X1X{.H aXaXnX2Xv qXKXZX/ J uX/.uX4.i.dXuX$X| g.oXW.| r./.j.|. .j./.@XaXt.aXHXCX`.i.sXbXHX[.eXkX;X:X! (.fX@Xz i.h.^.W.",
"Q *.j.m.`.I nX2XnX$.kXNXnX/.G.@Xc. X{.o.yXsXhXgX| d.3XaX^ | uX>XdXW ,.S.m.m.b x.L.0.' ,.f.0.c.X.f.k.j.~.6.V.:XdX[._.mXnXNXJ.9XMX<X XL 1X<X@Xk 4.l.x.Q.",
"q &.2.1.5.J kX_.vXX.`.#XB.+X( a.W.=XG.J L.`.y.'.].<.0.b.Y.R.C.l.$Xj =.tXb.v.b <.Y.s.i u.tXf.k.G s.l.g.3.T b.z./.`.t.pX:XhX| ].nX1X+X! (..XyX2.5.OXl.#X",
"+.X.C } ].6X| 6 T.].T._.T.jXlX6XC #.FX6X+.8X4XSXPX+.. }.xXlX[._.'.5X/ 7 h +.4X$.8XFX] p a v f O.Z i ! P Z w g / o.V b w 8 & % i p p @ 2 + 2 % % q v v ",
"gXgXW.z.mXNXlXY kXAXHXBXMXLXKXKX} xXLXHXwXgXkXKXKXlXy 2XnXkXVXnXBXJXxX+.zXSXPXPXPXUXPXKX] } 9XPXMX9XwXrXeXO.u zXBXGXeXzX9X7X} + Y.].}.[.T.R.].o.% T.eX",
"w.w.g.x.n.h.eX..bXqXbXnX1XnX+XiX..G.<X.XI..X>X-X,X7XB iX%X&XuXuXvXmXaX6.eX*XeXMX-X0X2XmX| | .X;X=Xi.L.0.E._.V ,X>X#X+X>XdXaX,Xi p.e.W.).e.~. X-XK I.+X",
"1.1.h.v.l.Q.<XY 2XfXaX2XiX>X@XvX} Y.pX/.$X|.W./.2XkX~ /.&XV.m.V.oXaXdX( eX0X;X(.Q.e.p.b. .| n.).I..XI.0.x.6.Y /.tXv.OX^.m.V.-Xe a.r.E.~.F.L.L.=Xh w.v.",
"r.&.z 2.w.I.P.( 3X;XY.'.a.P.t.y.J ( 4.G 4.2.F h 6.]...; + 7 k b.n.<.d.J 9X2X`.E.e.9.,.*.h l 1.E.9.e.r.e.,.d 7 3.q.d.k.E.n.S.E.2 g.Q.E.e.0.p.p.E.h H.E.",
"N e Z P X.A '.kXmXMX9X'.G.J.U '.].O.Y U X.J.+.O * eXGX9X] ] 8XSXSXN E 6XT.K e P Z 6 % p %.@.6 $ * 7 2 % o Z [ 4 & % B J h w b [ w 7 O 2 4 2 @ ] $.{ 2 ",
"m h.W./.,Xt.dXS.m.+X.XS.S.pXH.s.@XiXXXP.-X~.(.^ {.bXNXvX<XMXKXIXxX_.).gX/.e.A <X1X,Xp +.PXDX5X` | v.x.~ b (.).z.! U E.W.I.k _.0XY.I r D.K.^ 8 T.zX0XY.",
"9 h.B.m.iX<.k.M.S.v.B.S.uX+Xt.l.1.c.=XP.*Xi.w.6.q. X!.~.J.F.L.!.0XT ;.1.M.<.j x.1.m.r J.bX1XeXP e.f.n.R.! 1.d.m.T 8.*.f.u.G ~.M.^.>.F k.k.^.f G.!.~.e.",
"< m 6.G Q T m.A.A.d.oXuXuXuX) x.m.m.i.I.fXa.w.H.i.S.W.n._ F.z.E.,XK *.M.k.1.x x.l.m.< L.gX0X1XI 9.z.l.r.G b.f.v.W ^ ).M.u.F Q.f.M.D ! b.f.f.A ,.v.!.E.",
"X.p + @ &  .E.f. X`.H.W G F P 3 d T i 5 P / J.} ^ l j 8.O.| G / K.X.K.&.r.f t w.i.7.V +.5X9X].6 x R G m v x n R i T f.q.D.3 &.9.).l v e.;.j.w K E.t.3.",
"*X;X'.).).3XcXO.`.(.!.W.-XwXeXrXC h 9X<X;XeXeXKXzX .O B lX[.E.0X9X5X7X{ . 5XDXlXeX7XSX[.O.$ i R.H T G.H.[.^ 4 ~ }.].J._.}  .C = % { @.].^ ^ +.Y 5 &  .",
"1.l.l.b.x.f.%XD ( n.B.+XaXdXv.$X].x ^.$XgXqXkXkXmXMXq J.s.W.v.E.,X7.t.+.a ,X0XqXeX0X,X=X'.4 Y./.+XpX^.m.+X~.I L.c.!.U.J.=XXX<X..y L.XXE.L.e.*XE.T ~ wX",
"g.g.V.d.l.m.l.a [.,Xe.x./.S.b.n.J k g.c.XXp.|. X X1XV ;XNXL.5.7.p.1XY.{ r W.|.a.^.q.B.>Xc.2 E.l.a.~.E.f.E.0.i K.F.H.0.!.D.I..X} * *.&.z z &.2.3.! S K.",
"-.r.1.x k &.l q =.3.,.q.9.f.l.n.Y j r.E.p.9.e.z.B.-XJ 5.~.E.&.-.,.&.-.I D XXj.q.g.1.B.E.l.+ W.W.b.x.b.f..Xu.d z.@XL.E.(.E..X1XA 3 E.9.-.2.&.r.*.6.E 3.",
"i u n t.G.J P 4X .b & 6 r J e % }.].Q B N ~ G.m v G.7X#.w 2 r w 3 a % 4X#.& % 3 J 2.R a c [ ! P 3 c n Q 4 K 4X} 3 C p r d J v u C 9 w 3 g h c 6.T.].n ",
"r.W n.m.1X`.y.2XV.hX( Y.a.L.Y.J OX/.gX`.4.l.a.p.C G.bX<XU.8 G L.a.D.6 rX<X(.w N /.$X&X4.n.(.b.>.| 9X0X_.5 '.KXzXh p Y.y.Q % V 8X;XS & I | Q U O.wXxXi.",
"R z z.f.E.P.x  Xu.~.J.>.>.l.=Xh k.b.@XH.H l.1.h.h t.v.n.@Xh m b.S.0.N 1.c.v.F G n.iXaX2.l.A.A.<.f.^.c.'.g c.`.kX*Xj <.j.k.w *XqXS.1.I uXx.m.! T /./.m.",
"i.x s.x.W.2.5.$X|.+Xy.>.:.q.s.k k.n./.L.F.m.g.x.S >.^.n.n.E F.f.n.L.g h.e.>XD.F.S.$XaX4.p././.4.0.^.v.u.] O.~ 5X#.g *.1.b.h W.V.uXz.g q.0.V.v Q b.f.b.",
"e 2 w ; q 8 h h J | h 9 s M g > >.F 7.Q k ,.< < ; F 4.>.3.9 ~ >.q.G w &.G 5.9 n 0.H E.j < >.&.k r G f G & B o.H J v -.-.u.0 Q.tX|.!.M g.W.v.E v L.=.p.",
"7 Q j N $.[.P.D % @.].T.T.G.T.$.P % 5 8X4XP ..4X4X#.Y e T.#...O.( 8XFXo. .o.O.J & 4 a ] % $ } @.+.o.$.O.[ y $ 4 } ]  .{  .* 5 5 & ; 4 9 P L ] u 6 2 P ",
"1.9.*.r.,XgXW.^.L i.@XOX:X:XaX|./.P.=.1X-XW.~.gX,X+X_.W.fXaXbXgXaXNXgXwX2X$XdXn.OXm.m.S.:.W dXVXLXHXHXBXeX=XZ ^  X1X-XgXnX;XY.6 T.7X4X#.@.O.zXrXT.y.<X",
"9.,.e.q.oX#XB.#X~ 2.j.u.XX*XXXg.@XH R a.s.!.*.a.L.q.E D.`.:X Xa.7.5.`.t.,.f.M.A.A.A.A.A.:.I 2XqXwXMX0X`.W.uXB q.!.K.L.;XP.L.~.P I.fX<XQ 0 H P.'.O.G.W.",
"&.&.z.c.|.OX|.:XW 4.n.a.|.|.W.x.OX4.>.Q.q.e.h.5.~.^.R =.p.x.z.q.a.r.&XP.1.tXA.A.A.A.A.A.f.b aX:XB.&X&Xa.|.#X6 ;X+X!.s.,XXXa.@XQ 7.fX|.H.P.W. XU.h ^ r.",
"K e q K j 0 7 I }.+.m N F G.n n >.J ~ ,.x s x h l >.B p J H S R d k E } : :.1 , 1 : 1 :.1 % D R ^ 6.6.,.0. X{ 4.i.e.,.w.y.&.r.Z 6.'.s.y.a.p.i.U.8 K l ",
"$XH.&.5.9.W r i.iX1X! 7 E..Xa.J 9 u.y.: u [.}.[.C Y `.D.^ Z c A E & t Y.'.Y.] | | ].D.h 6.D.0 O O.Y.G.c & T.jXO.& V E n X.* y ] C y a 5 N u + & ] %   ",
"q.2.5.y.3.4.M 1.b.M.s.S 1.^.v._.=.f.#XM E p.N.'.W 8.^.f.x.n 9.q.h.6.*.m.OXuXR L.l.aX'.s.m.k.c.B g.pXn.W.L iXdXgX~.=.s.-X;Xc Y.qXqX].2.E.0.D.3 D.;XP.^ ",
"h.z 5.!.).H.k e.&.k.6.n r.F.n.].-.;.*.M S t.5.I.U T r.&.s.d L.E.5.T ,.b.m.b.l &.>.x ! 7.1.1.9.Q <.B.aX#X, g.OX/.K.t.s.XXXX< Q.m.n.|.,.d.<.9.8 l p.e.K.",
"=.9 9 m m 0 ; , 9 1 : g z 8.d.y.M 1 1 ; T z.0.u.S v >.0.f ; 4.>.q.&.*.g.1.z.H 3.,.e.T 2.x.l.9.g g.1.g.p.f q.v.iXS R L..X2XE z.M.@Xa.z q.5.;.h T 3.2.8.",
"5 u 5 = o i p 5 ] ..#.} t % @ O.o.B 0 [ I , w T  .C h U A * 5 ; % % & + % 2 % e i q ; ; 8 e b 6 2 2 ; + @ i 3 E t 3 } v ~ & ; J w.D ; F z G h : l d d ",
"5.q.<.f ; z.L.'.:X<XkX*Xi.i O.0XmXgX#XL.3.x + D.iX!.p.F..XT.w.8.K [.5X5X+.[.].[.5XP <XeX6XjXlXzX..4 } P ] q B  .[.} % e Y O.+.O.} V 6 % 4 Y #.@.} { ..",
"j.*.*.M ; r.4.6.s.a.W.W.q.a 9Xh.j.pX+X*.f.M.3 x g.F.P.K.0.m 8.4.d '.cX2X-X:XcX&XL.J i.!.<X#X1X`.~ 9 h.b.v.e.<.q.b.d.0 c.W.M.~.u.p.w.E.q Q 3.+X'.s.I.-X",
";.f.1.z 9 q.z.,.^ K.a.a.aXt 9.Z.:.&.f.j.:.;.; T /.`.{.rXE.K.E.H P 1XXXb.a.I.c.<Xr.> w.r.'.V.W.W.o.3 9.b.1.-.w.z.k.1.K q.i.1.w.q.q.i.;.q R 6.s.Y.U.H.6.",
"2 9 w g j 9 h b 0 f E T E > : x s s x k d ; X i 6.| I j 4.I o.g e J.a._.s.L.s.W.6.@ -.z.a./.x.l.P.: =.,.r.&.x -.=.s U 5.b.r.1.i.a.h.f.k l h.,Xc.W.:X X",
"L K 7 N Y.H.D 2 =.F.D.g i 6XO.| > <X9X`.Y.^ G.! A . 5 K N B O ].4Xi 4 & E t.].5 B $.G.f L t.S 0 6 ].| I 7 O $ % % 5 u h T c g h l k d e 7 d v K d v K ",
"M 2.I j r.,X=Xk x.j.).G P.:XOXOX4.iXoXn.e.6.x.a.OXv < ).x.1.2 I.qX=XP.B p.x.^.E ].9XW.4.T P.'.J.L 1X#X2XG.J.zXSXGX+.&.x.E.~ X. XU.Y.y 3 g =.3 2 B B w ",
"l =.9 x -.3.3.j 1.&.h.F _..X0.d.K i.XX/.5.^ j.a.M.c h f.f.1.q i.1XL.4.b L.e.x.n P a.q.R m &.>.r.l z.OX/.x J.rX;X9X| 1.;.f.K.T @XXX.X8 *.M.;.:.T 7.3.3.",
"< M : : z =.j 9 ,.q.9.G ( pX^.x.T 0.u.OXs.f 9.u.M.b l x.0.b.8 9.m.x.3.h v.d.m.J ..'.c.F l *.<.j.v 5.a.Q.3.h R z <.G 1.n.m.<.E w.<.|.h &.1.;.*.k 2.z x ",
"= = $ * = O $ % % % %   O + 2 + - & . . O O O . % $ O 2 . + $ 2 > y 5 % F K 6.3 4 ; h 4 w =.F 2.; A D T m h x x x ; H./.^.>.l -.5.3.3 d < :.s ; 3 : s ",
"K ^ &.m 8.n 4 J.J.G.~ | { { u * C { @.+.5X].] } O 4 B N } o.O.V { % u  .> * ] Z 6 Z = * V P 6 V { 4 u y & $ O % y ` y $ @ = & & % % & - . % = = # # # ",
"&.z &.k l &.2 n 4.r.5.g.w.i.8.6.I.W.U.t.z.|.s.K.y ;XoX:XK.,.u.I.c.K `.v.V.pX>XoXV.E.v U.l.a.:X0XfXkXGX]._.(.rX{.zXxXlXkXo.q i.z.t.P.3XY.R.J.c K.t.y.].",
"=.&.x =.8.z ; D.E.K.5.5.,.,.x J 0.K.i.3.L.i.P.K.h -X:X1XaX!.I.l.'.h p.c.l.b.g.1.1.r.< 2.>.>.<.4.E.z.-XO.6.2.s.Y.s.s.7.c.( : 3.1.m.n.1.&.1.&.2 x &.=.>.",
": 3 9 3 : , ; m F.! l =.-.w.=.n E.5.w.w.~.~. XL.G &X$XoXOXXX>XOX#XQ q.u.f.b.g.f.*.e.n L.e.9.g.r.&.L.-XU G 7.a.H.K.i.R 5.T 3 3.1.1.1.:.&.,.&.2 x M x M ",
"I c r % 2 J C q O @ 4 6 > ; r / L 2 q r r 5 u 7 u ~ K S S 8 e K ~ & h j l j k d , , + t j f =.H >.f F e W 4.G 2.t.s.R G h % k 1 1 :.x x M M % M x M M "
};
