/* XPM */
static char *b69fceb09aa9405bdb6425034dcfe6d4vpKTmAfJmJMZ7HEs[] = {
/* columns rows colors chars-per-pixel */
"75 75 256 2 ",
"   c #392200",
".  c #482B03",
"X  c #542D02",
"o  c #583706",
"O  c #573A14",
"+  c #4D340F",
"@  c #653906",
"#  c #673C16",
"$  c #694706",
"%  c #764A03",
"&  c #7A5305",
"*  c #694517",
"=  c #734A19",
"-  c #795513",
";  c #795826",
":  c #72522E",
">  c #7D6433",
",  c #5B4420",
"<  c #796848",
"1  c #745A41",
"2  c #855807",
"3  c #935D02",
"4  c #875C17",
"5  c #88520A",
"6  c #9B650B",
"7  c #9A6707",
"8  c #896317",
"9  c #976915",
"0  c #9C7218",
"q  c #956C0C",
"w  c #A26D0B",
"e  c #A8730C",
"r  c #A46D15",
"t  c #A47215",
"y  c #AB7314",
"u  c #AD7A15",
"i  c #A4741B",
"p  c #AB751B",
"a  c #A5791B",
"s  c #AD7A1C",
"d  c #A67B15",
"f  c #B27B14",
"g  c #B47C1B",
"h  c #B67918",
"j  c #B57A0B",
"k  c #865E26",
"l  c #8A6727",
"z  c #976B25",
"x  c #997429",
"c  c #896334",
"v  c #936B38",
"b  c #9B7537",
"n  c #8A712F",
"m  c #AB7524",
"M  c #AC7B23",
"N  c #A67828",
"B  c #B37D23",
"V  c #B37E2B",
"C  c #B77C22",
"Z  c #A77B38",
"A  c #A8742B",
"S  c #8B7348",
"D  c #9A7947",
"F  c #907250",
"G  c #A67C45",
"H  c #A57A58",
"J  c #947B61",
"K  c #A17C62",
"L  c #AB831D",
"P  c #B5821C",
"I  c #BA831D",
"U  c #BC891D",
"Y  c #B78414",
"T  c #B8810B",
"R  c #AC8326",
"E  c #B48325",
"W  c #BB8523",
"Q  c #BD8A25",
"!  c #B3832A",
"~  c #BB842C",
"^  c #BC8A2B",
"/  c #B68A28",
"(  c #BD922B",
")  c #BD9026",
"_  c #AD853A",
"`  c #BC8C33",
"'  c #B88636",
"]  c #BC9233",
"[  c #BB9738",
"{  c #BEA33C",
"}  c #C38719",
"|  c #D09119",
" . c #C28624",
".. c #C38C24",
"X. c #C38C2C",
"o. c #C88C29",
"O. c #C49125",
"+. c #C5932C",
"@. c #CA942C",
"#. c #CC9A2D",
"$. c #CA9526",
"%. c #D39D2B",
"&. c #D69928",
"*. c #C38C33",
"=. c #C48D3A",
"-. c #CA8D35",
";. c #C59233",
":. c #CB9434",
">. c #C59B35",
",. c #CC9B34",
"<. c #C4943B",
"1. c #CB953B",
"2. c #C59A3B",
"3. c #CC9B3C",
"4. c #D29C33",
"5. c #D39C3B",
"6. c #D59937",
"7. c #D5A22D",
"8. c #DCA22D",
"9. c #DBA92C",
"0. c #CDA23B",
"q. c #C8A139",
"w. c #D4A234",
"e. c #DBA435",
"r. c #DDAA35",
"t. c #D4A33C",
"y. c #DAA53C",
"u. c #DCAA3C",
"i. c #D4A83A",
"p. c #D4A935",
"a. c #E3AB35",
"s. c #E3AD3B",
"d. c #E7A935",
"f. c #EDB136",
"g. c #E4B23D",
"h. c #EBB23B",
"j. c #E4B235",
"k. c #F1B53B",
"l. c #E29D2A",
"z. c #9B8250",
"x. c #AA8546",
"c. c #B68947",
"v. c #BC9647",
"b. c #A78858",
"n. c #B78B52",
"m. c #B89558",
"M. c #AD904E",
"N. c #A78967",
"B. c #B69967",
"V. c #AF9472",
"C. c #BCA377",
"Z. c #AE965D",
"A. c #C59B42",
"S. c #CC9B43",
"D. c #CC9D4C",
"F. c #C69545",
"G. c #D39C43",
"H. c #D49D48",
"J. c #C79B56",
"K. c #C28E46",
"L. c #CDA243",
"P. c #CAA548",
"I. c #D4A343",
"U. c #DBA543",
"Y. c #D5AA44",
"T. c #DCAB43",
"R. c #D4A44A",
"E. c #DAA44B",
"W. c #D4AC4B",
"Q. c #DCAB4B",
"!. c #DCB345",
"~. c #D4B34D",
"^. c #DDB34B",
"/. c #DAB546",
"(. c #CDA359",
"). c #DBAB53",
"_. c #D6A856",
"`. c #DDB253",
"'. c #DAB756",
"]. c #E2AC43",
"[. c #E3AD4B",
"{. c #E4A948",
"}. c #E3B244",
"|. c #EAB544",
" X c #ECBA45",
".X c #E4B34C",
"XX c #EAB54C",
"oX c #E5BA4C",
"OX c #EBBB4B",
"+X c #E7B945",
"@X c #F2BA46",
"#X c #E3AC52",
"$X c #E4AE56",
"%X c #E3B453",
"&X c #EAB553",
"*X c #E4BB54",
"=X c #ECBC54",
"-X c #E4B45B",
";X c #E3BB5B",
":X c #ECBC5A",
">X c #F2BC55",
",X c #F3BD5B",
"<X c #C5A56A",
"1X c #D9B964",
"2X c #C9A875",
"3X c #D9B677",
"4X c #D5AB6A",
"5X c #E9BB64",
"6X c #E7BC75",
"7X c #EAB766",
"8X c #C39D75",
"9X c #E9C25B",
"0X c #F6C559",
"qX c #F5C652",
"wX c #EDC362",
"eX c #E9C666",
"rX c #F6C866",
"tX c #F9D56D",
"yX c #FBD674",
"uX c #F2C875",
"iX c #FFE37B",
"pX c #B49D85",
"aX c #B9A589",
"sX c #BDB296",
"dX c #C5A98A",
"fX c #D5B988",
"gX c #CEB58E",
"hX c #CEBBA3",
"jX c #E0B98E",
"kX c #D5C39C",
"lX c #F1CE8E",
"zX c #FFF290",
"xX c #DBC7A9",
"cX c #DBCFBD",
"vX c #F4DABB",
"bX c #E9D0AF",
"nX c #FDEAB8",
"mX c #EBD9C2",
"MX c #F6E4CA",
"NX c #FAE9D6",
"BX c #FFF4DB",
"VX c #FFFCDD",
"CX c #FFF7D6",
"ZX c #F4EDD1",
"AX c #FAECE6",
"SX c #FEF4E3",
"DX c #FFFBE4",
"FX c #FEF5EB",
"GX c #FFFCEC",
"HX c #F6F3EC",
"JX c #FCF6F3",
"KX c #FEFDF4",
"LX c #F5FCFE",
"PX c #FEFEFE",
"IX c #F7F6F9",
"UX c #EEF0F4",
/* pixels */
"PXPXPXPXPXPXPXPXPXKXKXPXPXPXPXPXLXLXLXLXLXPXPXJXJXSXSXVXCXnXbXlX3XJ.(._.(.D.J.1X6XlXuXlXzXnXnXCXCXVXVXHXPXPXPXPXPXPXIXPXPXPXJXHXPXPXPXPXPXKXKXKXPXKXPX",
"PXPXPXPXPXPXKXPXJXPXPXPXPXIXLXLXLXLXLXLXPXPXJXFXSXBXvXdXb.b.b.c.Z A m 8 5 9 9 8 4 l _ M.4XfX3XlXkXZXDXGXJXKXPXPXIXPXPXPXIXPXPXPXPXPXPXPXPXPXPXKXKXPXKX",
"PXPXPXPXPXPXPXPXKXPXPXPXIXPXPXPXIXPXKXAXFXGXBXmXC.N.D G v - = 8 5 8 9 9 9 9 9 5 8 & % X $ 8 n Z.3XfXkXnXCXSXFXPXPXPXPXPXPXPXPXPXPXPXPXPXPXKXPXKXPXKXPX",
"PXPXPXPXPXPXPXPXPXPXPXIXPXPXPXPXPXKXJXFXDXxXb.D G b 4 % & _ ' R A._._.).7X).)._.F.A.5Xv.c.x $ $ $ n Z.C.gXvXBXDXJXKXIXPXPXLXLXLXPXPXPXPXPXPXPXKXPXPXPX",
"PXPXPXPXPXPXPXPXPXPXPXPXPXPXIXJXAXFXSXhXS D n.l % 2 d ^.wX`.Q.:X;XuX_.] ' A.`.$XH.).uXP.1X1X_.(._ & @ z c.n.2XbXCXDXKXKXLXLXLXPXPXPXLXPXPXPXPXLXPXPXPX",
"PXPXPXPXPXPXPXPXPXKXPXPXPXKXPXJXAXvXN.D n.5 X q ;.=XrXg.O.Q @.>.L.uXL.0 a A.5X).-X-XS.B ' ' P._.Q.Q.1.i 2 5 n m.gXvXVXGXPXIXLXLXPXPXPXPXLXPXPXPXPXPXPX",
"PXKXPXPXPXPXPXPXPXPXKXJXJXPXFXNXdXv v v $ 5 T.0XqXg.w.%.U T ..Y.d W.E 0 ^ I.=XI.rX%XB B s 9 ` E.[.6.-.{.R.! 9 l x.Z.kXZXGXKXPXPXPXPXPXPXPXPXPXPXPXLXPX",
"PXPXPXPXPXPXPXPXJXPXPXFXKXKXcXN.H Z 4 5 =.0X9Xj.r.| T Y j.0XOX,.] W.R ] %XY..X].=X&XP &XI.w s ;.s.6.@.o.5.I.] 0 z n z.C.vXGXGXKXPXPXPXPXPXLXLXPXPXPXPX",
"PXFXPXPXPXPXPXKXKXJXGXBXGXxX: V.Z @ 9 -X.X>XqX7.9.| 7.p.}.t.Q L.9X*X^.*X%X!.T..X&XXXX.U.=XX.s y f y.4.:.&. .6.6.R 0 z D B.bXSXSXFXKXPXIXPXPXLXPXPXLXPX",
"PXPXPXPXIXKXPXPXKXAXGXDXaXS V.o $ ] rX[.}.qX9.j.j.7.7.w.T.Q.<.L.*X^.^.!.T.T..X>X].>X0Xy.I W W ^ u W y.].&.} h C 2.` Z A b m.bXCXGXAXKXKXIXIXPXIXPXPXPX",
"JXPXPXIXPXPXPXKXKXDXBXdX; Z.o 8 2.rX9Xw.0XqX| %.7.g.OXT.R.P.S._.^.~./.T.i.i.T.OXu...5...e W W ` E.s ,.[.6.6.}  .Q *.*.V z k c.jXVXSXKXJXFXPXPXLXLXPXPX",
"PXPXPXIXPXPXPXFXSXDXC.> m.o x A.*Xu.p.oX0XqXr.g.7./.XXY.I.L._.'.W.T./.!.y.i.w.w.w.5.].5.X.*.>.%XQ.a s @.y.{.o.} f  .W V -.A 9 v hXDXGXSXKXKXPXPXPXPXPX",
"PXPXPXPXPXIXJXKXDXgX: 4X. N %XI.,.,.+X0X}.e.].%.g.i...+.Y.`.*X9X.X/.!.T.u.i.4.#.5.0X5.E :.I.3.<.] ,./ @.{.-.o.o. . .C C =.K.z k F xXBXSXKXKXJXPXPXPXLX",
"PXPXPXPXIXJXKXGXxX, 2XX N Q.U.s.w.u.u.OX}.%.$.} ) @.O.t.=X*X=X=X*X!.i.#.w.w.5.#.U.0Xy 7 S.S.` ! I.:X+.+.{.6.l.-.o. .C m V K.V z c J bXSXFXFXPXPXPXPXPX",
"PXIXPXPXIXPXKXcX< aX$ % rXy.a.d.@.u.y.XXy.f 6.rXe 6.].=XqX+X9X+XoX/.i.q.>.w.5.,.t.=XG.<.S.` ` 5X[.w.P g l.6.-.C h C C V V V V Z v > V.mXDXJXPXKXPXPXPX",
"PXIXPXPXHXKXZXJ N.n $ 7XI.a.d.$.e.u.[.>X,.g XX0X..XX}.}.h. XqXg.+XoXoXu.i.i.i.4.W ,.Q.E s ! R I.+.y o.@. .-. .h h r C ~ A A V c.G v c C.NXGXFXPXPXPXPX",
"UXLXPXJXFXFXV.H x.$ S.*Xe.s.|.d.,.T.T..XT.;.@.t.5.y.T.}.XXOXqXqX+Xr.r.u.y.u.w.*.-.,X@.h  .W o.o.6.I h {.G.-.6. .h r h j r C -.A z v G * jXSXDXKXPXLXLX",
"LXUXPXKXKXbXH m.@ V Q.T.OXs.&.e.t.I.9XY.:X;.,.I.t.U.].|.OX+Xg.g.g.g.u.u.y.:.:.6.G.H.g y h y h o.o.o.C H.-.1.G.~ h h h h h  .o.m A m.x v ; vXDXGXPXPXPX",
"LXPXPXJXAXK 8Xk % 5X^.r.|.8.&.e.,.I.0X0.:X0.+.I.t.y.}.XXOXOX|.g.p.g.u.w.4.Q Q U.{. .g g g g h  . .@. .@.X.-.1.o. . .o.o. .o.~ m A K.x.G # b.DXDXPXPXLX",
"LXPXPXFXhXH 4XX F.wXt.OXu.&.d.e.,.i.%X,.T..XQ T.u.T.].}.|. X X Xp.r.e.%.w.U ..>X].I  .g } 6.@.$. .4.} C C 6.-.6.6.6.l.6.6.-.-.C ! A c.Z v O xXGXKXLXLX",
"IXUXJXAXK 8X% A ).t.w.qXa.d.d.&.,.t..X,.t.=X,..X].!.].].].g.g.g.p.r.7.%.e...+.>X].h g f f 4.@.&.&.$.h f h 6.1.{.{.{.s.y.6.5.-.-.` ' A c.G = S GXKXPXLX",
"PXPXJXhXK G @ E.I.e.g.g.s.h.6.d.e.w.=X) [.&X=XXX#.#.y.u.s.s.s.a.a.r.7.w.e.O.o.OX].h h  . ... .o.%.o.h u y 6.6.{.].|.s.a.s.d.6.H.1.<.V A x.v + hXGXPXPX",
"IXIXAXK 8X@ m G.].g.@Xa.s.d.6.|.e.t.XX@.T.oXrX].Q Q @.4.a.s.d.s.g.r.r.r.7.$.#.].u.o.P #.o.I .. .&.o...f w G.].].s.|.s.u.].y.6.G.I.` <.i _ Z * S SXJXPX",
"IXAXmXN.K.5 o.-.g.$.}.@X|.&.s.a.4.w.e.w.,.&X0Xw.O.O.@.%.w.e.s.s.g.e.u.r.%.o.%.y.|.[.} f f I 5.%.@.O.%.f 7 U.XX].s.|.s.y.s.w.o.4.6.s -.~ A G = O MXHXPX",
"IXAXpXjX- i 6.u.&.g.g.h.a.e.d.&.#.u.,.XX!.oXyX,.e O.#.U $.} }.a.s.a.e.e.a.y.a.y.e.].P $.5.&X=X&Xs.6.].I y U.{.{.6.|. Xe.].].5.[.6.,.*.E m _ G . V.SXIX",
"IXNXV.2X% *.@.a.a.h.j.+Xs.%.a.a.e.%.w.}.T.oXiX#.( !.T.O.} } e.e.].|.].y.e.y.y.#.I y.4.y.@.o.W ..4.@.5.~ C {.&X{.[.&XU 4.u...:.X.,.5.6.<.V Z G * : AXJX",
"JXxX8Xn.% U.%.9.h.s.e.OX}.%.r.j.%.U ].T.0./.tXq.>.9X=X@...I o.$.y.|.|.d.a.s.y.4.[.%.+.+.W :.6.Q.5.o.-. .-.$X#XH.y.XX..@.o.y *.~ E Q ;.3.*.V G c . mXJX",
"FX8XfXk 6 w.e.&.e.e.i.XX}.%.7.7.#.P .X,.Y.i.9XY.q.rX0X0.4.$... . ...6.6.s.].e.y.>X....X.W 1.~ X.@.P C C 6.$X#XH.4.{.[.I y ~ X.X.w r u *.*.V c.b . sXJX",
"BXb.3X$ / %.7.&.%.u.U..XT.w.p.%.w.#..X) *X'.~./.W.rXrX^.t.t.@.@. .e I $.6.y.4.|.4.f X.W p p C -.+.P 6 i =.E.E.H.{.{.G.g y *.~ m ! a 6 g V =.K.G O F SX",
"vXN.J.& Q 7.%.8.e.[.[.[.i.w.r.r.#.T.rXq./.0.q.9X'.9XwX^.( :...:.y.h  .6.-.6.@.,X:.u f w w s H.uX1.-.i r V =.K.-.E.[.X.:.B r 1.' R.2.t 6 C =.K.G ; O NX",
"fX<Xx.2 Q u.&.e.U.[.%X,X.Xw.r.g.O.T.rXoXq.[ ~.tX~.P.'.^.s Q X.6.{.o.6.6.6.4.$.,X..f w w *.V H.#X~ G.*.m A m V ' D.E.1.E.V 9 H.D.R.).~ r 6 V K.c.c + xX",
"<X2X_ & ;.r.e.e.u.[.%XuX:X>.i.oX!.>.!.9XP.~.eX'.{ { 9XrX/ ;.1.&X6.-.{.].6.-. .XXh C y s E.=.H.G.6 F.=.V m m =.H.-XH.#X1.C =.=.=.=.%XS.r 3 m F.n.D * dX",
"n.3X8 0 ,.,.u.qXU Q.yXwX9XeX[ ~.9Xq.i.9X{ tX~.~.{ P.eXR.B 1.$XG.{.-.g 1.{.W W ,Xg r 3 r ~ 1.*.m =.7XC C B 6 S.-.$XE.S.*.p G.6.T.Y.0.Y.W w 0 F.J.b O H ",
"M.7X4 0 >.0.t.OXrXQ S.rXzX;X1XP.q.9X{ ~.eXeX'.~.eXP.2.L.<.-.-.~  .y X.U.:.~ *.*.~ C V ~  .V V =.F.H.V ~ 7 g I.E.E.1.*.*.C G.t.T.T.i.T.( L a 1.<XG o F ",
"c.6X& i 2.y.w.T.0Xt.0 ^.;XyX1X{ { tX'.~.eX'.'.;X~.'.P.` $XrXR.V -.:.&XU.g s X.C :.1.1.-.' C V F.E.=.-.V 2 @.G.#X#XS.*.V g I.y.I.t.Y.T.( / i ' (.H @ : ",
"x.6X2 R ,.Y.w.u.}.=XoX0 '.uX{ ~.~.oXiX'.'.9XP.P.P.[ ` R.$X_.S.1.*.&XU. .^ o.*.1.1.-.=.=.=.*.-.H.H.V *.C 3 U.5.[.%XG.*.m B 5.U.T.0.Y.i.Q / q R (.G # = ",
"Z 6X2 ~ ,.i.w.r.T.=XwX] '.1X] ~.9X~.9X{ ;XeXL./ W.' <.S.! F.`.' I.[.6.+.U.G.X.~ =.*.X.*.F.G.H.H.V V B p X..X[.#XH.*.=.E E G.T.T.t.Y.Y.( Q 9 V 4XK.# # ",
"Z 6X& E q.#.w.w.r..X0.eX~.eXP./ ~.tX~.{ uXW.3.^ q R.S.i <.uX_.R [.,.I.5.g g C u  .X.*.*.6.H.H.H.p m r B U.U.t.5.1.^ F.~ *.6.y.3.T.T.^.^ E 6 ' 4XK.# # ",
"_ 5X2 i t.O.r.7.}.i.9X*XuX1XyX[ { eXeXeXwX] S.H.3 *.V ` uX_.N A.~ g X...w w W *.*.1.-.-.-.H.G.~ m r r o.,.w.*.X.1.^ <.B *.6.I.,.I.Y.`.+.i q c._.G # # ",
"c.6X% t Y.#.!.4.i.,.^.%X'.eX{ tX{ { yXyXL.E.E.).$X' H.5X'.2.v.[ I.T.:.+.U.U.:.6.1.G.-.~ F.E.=.6 p 5 y {.Q T.+.;.H.V ~ r ~ I..X.XI.I.*X>.y 9 K.(.G k # ",
"Z lX& / >.) w.#.i.u.Y.%XwXyX~.~.~.L 9X'.q.wX3.~ H.G.E.-X`.F.] [ ^ W W W W W o.1.,.;.B *.E.1.p C 6 p ,.:.:.y.,.I.U.-.*.r *.G.U.[.t.^.rX/ ` 3 F.(.G # : ",
"G uX8 ! 0.t.!.u.Q ,.5.>.` ~.'.9X~.eX{ q.eX%X:.B s *.S.=.[ A.v.[ ,.y.].].Q.t.I.{.C C *.G.-.m r p i B G.t.y.T.,.5.E.X.1.m ~ [.U..XQ.#X5.E ! 9 J.J.H O c ",
"M.4XA 0 >./.u.u.y.t.I.t.] /.R.Y.{ eX{ ~.yXwXQ.r w ` I.S.S._._.2.W I W X.o.X.W W W g 6.E.C p m w ~ X.I.y.y.T.5.t.Q.~ H.^ ~ -Xt.[.E.%X:.*.R 2 _.J.G X N.",
"<X<XM.& ` >.) +.w.+.T.&X%X*XY.Y.9Xi././.&XrX+.3 a ! <.2.` [ ] ! t.,.@.+.Q P g W ;.*.5.1.C p p y <.:.5.5.w.y.w.y.[.*.S.=.s [.t.U.T.).t.;.0 i (.M.S . dX",
"kXZ.2X$ R L / ) I 4.&XU.+.;.,.i.*Xt.%X>.t.9XE ( >.0.L.Y.E.).7XrXt.y.T.y...e s ..X.I.1.C r 7 p 1.G.I.5.y.w.w.y.U.E.G.1.G.C 5.[.I.&XE.3.s i D.<Xb ; + xX",
"lXz.3X$ z 0 >.^.:.[..X7 7 P +.,.5.O.T.T.0.^.*X'.9X9X'.L.L.E.I.6.U.,.:.w.y.:.o.o.6.5.~ y C C ^ #XU.[.T..X].i.T.Q.Q.#X1.S.^ 1.,X[.[.5.1.0 0 ).(.G # : NX",
"CXM.3Xn 8 R Y.iX].U.h @ u 5.5.4.4.I w.oXq.q.9X9X0.[ / ] L.Q.{.$XXXo.e e ..X.+.;.U.W r u :.G.3.G.G.T.5.e.w.@.].[.[.#XR.-.*.*.T.Q.5.:.*.t V D.J.H + F AX",
"VXN.3XM.& ! /.zX0X@.7 5 6.s.} } j } T u p.p.q.iXiX{ e s ^ I 6.>XyX[.I w 7 7 ..[.*.7 7 C ~ *.1.^ X.;.g W Y f i..X].E.#XW ^ ^ ;.5.2.*.t i R.D.K.c + N.JX",
"CXvXS <X9 R M iXiX9XL P g.&.| | | } j } } e ) tXzX9X:.@.6.e.l.@.4.@...f 3 3 I U.w r r B ~ =.*.' ' B *.Q e } T.e.r.i.!.%X+./ R.2.L q R P.P.D.K.= + cXPX",
"DXZXv kXl q a W.iXiXY.U } | | | | | | l.| w e !.0Xt...,.6.l.l.6.y.P 7 7 w g 6.6.h y i r i i 9 9 m 0 i t 7 Y u.r.u.].w.T.2.^ R 0 R q [ ` F._.G # 1 NXPX",
"GXDXV.B.m.2 a P Y.tXrXt.| | f.l.&.l.&.9.j.%.U U U e f } ..} } h e 7 h #.a.].].6.@.@.6.G.H.#X).-XE.R.#X[.5.].{.6.w.XX,..X-X;XL.A.'.P.-X<.H.J.k X V.AXPX",
"FXDXxX> lX2 9 d u 0.qX=Xl.l.d.d.h.@Xd.&.8.g.$.e w w e o.| o.$.$.#.w..XXXs.5.y.y.o.o.:.3.G.G.S.H.).E.E.I.:.{.{.6.y.&X:.%XI.).W.).Y.P.<.P.F.Z # O cXPXIX",
"KXGXVXS 3Xc.5 t W +.5.u.-.} &.l.j.g.s.7.%.8.a.&.h.a.s.>X>XqX0X>X0XoX].w.%.4.a.6.6.5.y.].I.3.1.1.I.5.5.,.5.[.&X{.#X{.*.E.B A.I.] 2.^ ! _._ l + J FXPXPX",
"PXKXBXxXv 6X9 r Q 6.,.:.o. .o. .w.U O.s.g.a.d.k.a.&.&.9.%.e.t.w.u.w.w.e.y.s.].e.y.e.6.{.].5.,.,.+.,.,.,.5.H.G.-.$XH.:.).` E.`.! %XQ )._.b >   hXIXPXLX",
"PXJXSXVXD 3XJ.p r :.4.:.4.@.o.@.T./ O.|.@Xs.8.&.| } | 7.r..X%X!..X!.}.r.%.w.a.e.h.a.a.s.T.4.@.@.e.e.,.@.y.{.&X&X#X#XH.{.3.S.I.E 5.! R.' ; O < HXPXLXLX",
"PXPXKXBXgXD 6Xz 3 X.*.:.5...:.#X/ / 0..Xs.g.h.l.d.9.a.h.}.!./.Y.g.u.g.}.a.s.s.&.e.&.$.4.u.e.e.r.%.s.s.u.XXXX{.H.-.$X#XI.Q.I.Y.t.1.).v.b ;   hXKXPXPXPX",
"PXPXHXGXVXS 2X4XA m -.6.:.,.Q.] R Y.0.=X}.s.g.@Xd.j.|.+Xg./.^.!.i.!.}.+Xg.r.r.a.8.e.&.7.&.%.r.|.a.r.r.s.s.XX[.u o.$X[.,.I.T.q.0.H.D.c.; + J GXIXPXPXPX",
"UXPXIXKXDXvX; lX(.m ^ 3.~ %X3.a 2.`.L.^.OX}.s.8.a.a.g.+X+X9X^./.oX}.g.g.a.j.j.a.f.d.d.a.9.a.h.|.g.+Xg.|.|.[.y.@.rX .7 Q t.t.>.;.).c.l * + cXKXPXLXLXPX",
"PXPXPXKXGXDXV.b.lXJ.V ^ :.0.L.( A.;X;X%X%X]..Xs.OXOXg.u././././.9X+Xg.r.j.g.h.d.f.f.d.f.d.h.h.|. X#.}.OX$.5.=X[.{.7 w 5.Y.>.w.L._ _ ;   pXKXLXPXPXPXPX",
"PXPXPXPXKXHXDX< <X6XK.E L.~ /.L./ S.E.] L.0.[.T.T..X.X/.+Xg.u.OXg.}.!.u.g.h.h.h.k.f.f.f.k.k.h.|.#.i.I.w.XX&X.X&Xe f 3.%XR.3.L.P.x > + 1 HXHXPXLXPXPXPX",
"PXKXPXLXLXLXGXmXS 3XP._.B t.+.>.2.<.` a 3.~.'.P.>.q.T.oXqXoX/./.!.}.!.u.s.|.@X@Xk.k.f.k.k.@Xk.|.;.s R.%X2.%XU.w ^ T.Q.S.R.(.[ _ z.. , ZXIXHXPXPXPXPXKX",
"JXPXPXLXLXLXHXGXxX> 6X_.Q.L ) >.E.I.S./ A._.~.'.W.[ >./.!.+X+Xr.}.}.T.r.u.h.qXk.f.f.f.f.f.f.f.|.` (.7X<.V ! s E G.).A.[ W.P.x - o O kXKXKXLXPXPXPXPXKX",
"KXPXLXUXLXLXLXZXVXC._ eX>.Y.L 0.^ S.R.<.` v.[ (.eX[ q.Y.#.w.+Xr.}./.u.e.g.k.f.&.d.f.f.f.d.f.k.@X7XJ.6XF.9 V S.R.2.3.S.D.A.x & @ . sXKXZXPXLXLXPXPXKXJX",
"KXIXLXLXLXLXUXKXCXCXB.b eXW.i.L ^ ;.H.D.<.P._ P.(.] '.eXq.q. X}.!.T.i.T.}.|.7.} |.k.@Xk.f.f.@X,X_.x x 9 M R.<.3.I.<.D.P.Z ; $ X pXGXFXKXIXPXUXPXPXPXKX",
"PXPXPXPXPXLXPXPXAXFXVXB.x.1X~.P.R / '.R _.A._.m V F.W.W.Q.^././.T.Q.!.Y.rXi.t.=X.XOXi.w.0X|.p.$.& L.L.,.i.@.#.w.Q.-Xc.Z v . + aXKXPXPXPXPXPXPXPXPXPXPX",
"PXPXPXPXPXPXPXPXPXIXNXDXdXn 1X{ P.0.L.R L.0 F.).`.<.M a ] '.0X9XW.*X).;.).Y.W.*X^ / i.2 P rX#.d ( /.q.w.].#.y.[.#X[ 9 ; O + pXFXPXPXPXPXPXPXPXPXPXPXPX",
"PXPXPXPXPXPXPXPXPXIXIXNXVXbX> <XyXq.^.( ) i.i.q.E.I.I.Q.Q.2.R q ` 1.` B R.).-X-X5XM Q.M >.,X<.I./.!.,.5.y.w.Q.).A.- * . , hXJXPXPXPXPXPXPXPXPXPXPXPXPX",
"PXPXPXPXLXPXPXPXIXIXJXIXDXNXCXx.n eX'.9X/.L $.p.#.,.5.t.S.F.).5X' ! V <.-X`.).7X! S.).P.5XR.] E.T.e.y.T.Q.-X_.A & *   < NXJXPXPXPXPXPXPXPXPXPXPXPXPXPX",
"PXPXPXPXPXPXLXPXPXPXPXIXIXIXAXBX2XR { 1X'.9Xq.#.p.7.4.y.H.G.-.G.).I.;.S.I.;.a t / rX<.] rXN N rX6.{.tXuXD.' x $ o   sXDXHXPXPXIXPXPXPXPXPXPXPXPXPXPXPX",
"PXPXPXKXPXPXLXPXPXIXIXPXIXIXIXIXVXbXS x.1X1X9X~.g.p.#.#.5.G.H.G.:.i.,.t.U.:X.XI.-Xq / A.0 a '.`.yX{.H.` z - o . < MXHXGXPXIXIXIXPXPXPXPXPXPXPXPXPXPXPX",
"PXPXPXPXIXIXPXPXPXIXIXPXIXIXPXAXHXSXDXgXz.z.{ 1X~.'.9XoX}.].{.a.w.p.#.q.) T.p.#.P 0.*X2.;XuXeX'.D.=.c.8 . . < sXSXIXPXIXPXPXUXIXPXPXPXPXPXPXPXPXPXPXPX",
"PXPXPXPXKXKXIXPXIXPXPXIXIXPXPXPXPXPXPXKXCXsXz.; M.v.P.R.Q..X[.y.qXoX!.0XoX0XrXrXrX9XeXeX'.v.P._ Z = o . > kXZXKXKXPXPXLXLXPXPXPXPXPXPXPXPXPXPXPXPXPXPX",
"PXPXPXPXKXIXKXKXLXLXPXPXPXPXPXPXPXPXPXPXPXKXSXvXN.v l n ! { q.Y.U.I.Q.).`.L.S.S.P.A.{ _ R - - $ . : N.xXCXGXKXPXPXPXPXPXPXPXPXPXPXPXPXPXPXPXPXPXPXPXPX",
"PXPXPXPXKXKXKXKXKXPXPXLXPXPXPXPXLXLXPXLXPXPXPXHXIXZXxXB.n - & & 8 5 4 9 8 9 8 z - $ $ o O , > S bXmXVXDXKXPXPXLXPXLXPXPXPXPXPXPXPXPXPXPXPXPXPXPXPXPXPX",
"PXPXPXPXPXKXKXJXKXIXPXPXPXIXIXKXLXLXLXLXIXPXPXPXPXPXJXGXVXvXgXB.S c ; = # @ @ # : c z.aXxXZXDXDXGXGXKXKXPXPXPXPXLXPXPXPXPXPXKXPXPXPXPXPXPXPXPXPXPXPXPX"
};
