/* XPM */
static char *d75bce36baeb426abb446d9a0dead9ccwGySOqor6PTQHQb0[] = {
/* columns rows colors chars-per-pixel */
"75 75 254 2 ",
"   c None",
".  c #4A2802",
"X  c #562C02",
"o  c #5A3705",
"O  c #5B3B11",
"+  c #663907",
"@  c #673C16",
"#  c #694503",
"$  c #764902",
"%  c #7D5301",
"&  c #775207",
"*  c #6A4318",
"=  c #72491B",
"-  c #785511",
";  c #7A5525",
":  c #79522F",
">  c #855807",
",  c #935D02",
"<  c #885B16",
"1  c #88520A",
"2  c #9B650B",
"3  c #9C690D",
"4  c #9A6504",
"5  c #896317",
"6  c #946615",
"7  c #9B6D13",
"8  c #976818",
"9  c #9C7219",
"0  c #9B7215",
"q  c #956C0C",
"w  c #A26D0D",
"e  c #A26D04",
"r  c #AB740E",
"t  c #A57209",
"y  c #A36D13",
"u  c #A56D18",
"i  c #A47215",
"p  c #AB7314",
"a  c #AD7A15",
"s  c #A4741B",
"d  c #AB751B",
"f  c #A5791B",
"g  c #AD7A1C",
"h  c #A67B15",
"j  c #B27B14",
"k  c #B47C1B",
"l  c #B67918",
"z  c #B57A0B",
"x  c #8B6826",
"c  c #976B25",
"v  c #9A7429",
"b  c #896334",
"n  c #946C38",
"m  c #9B7537",
"M  c #AB7524",
"N  c #AC7B23",
"B  c #A67828",
"V  c #B37D23",
"C  c #B37E2B",
"Z  c #B77C22",
"A  c #A77B38",
"S  c #A8742B",
"D  c #8B5D22",
"F  c #9C7945",
"G  c #916F47",
"H  c #A67C45",
"J  c #AB831D",
"K  c #B5821C",
"L  c #BA831D",
"P  c #BC891D",
"I  c #B78414",
"U  c #B8810B",
"Y  c #AC8326",
"T  c #B48325",
"R  c #BB8523",
"E  c #B68925",
"W  c #BD8A25",
"Q  c #B3832A",
"!  c #BB842C",
"~  c #BC8A2B",
"^  c #B58B2C",
"/  c #BD922B",
"(  c #BD9026",
")  c #AD853A",
"_  c #B38234",
"`  c #BC8534",
"'  c #BC8C33",
"]  c #BD8C3B",
"[  c #B58839",
"{  c #BC9233",
"}  c #BD943B",
"|  c #BC9C3B",
" . c #B79534",
".. c #BEA33C",
"X. c #C38719",
"o. c #CA941B",
"O. c #DA941B",
"+. c #CF8A14",
"@. c #C28624",
"#. c #C38C24",
"$. c #C38C2C",
"%. c #CA8E2B",
"&. c #C68927",
"*. c #C49125",
"=. c #CB9225",
"-. c #C5932C",
";. c #CA942C",
":. c #CC9A2D",
">. c #CA9A27",
",. c #D39D2B",
"<. c #D69928",
"1. c #C38C33",
"2. c #C48D3A",
"3. c #CA8D35",
"4. c #C59233",
"5. c #CB9434",
"6. c #C59B35",
"7. c #CC9B34",
"8. c #C4943B",
"9. c #CB953B",
"0. c #C59A3B",
"q. c #CC9B3C",
"w. c #D19533",
"e. c #D29C33",
"r. c #DA9D35",
"t. c #D39C3B",
"y. c #D99E3A",
"u. c #D2953B",
"i. c #E29D2A",
"p. c #D5A22D",
"a. c #DCA22D",
"s. c #DBA92C",
"d. c #C6A23C",
"f. c #CDA23B",
"g. c #CDA034",
"h. c #D4A234",
"j. c #DBA435",
"k. c #DDAA35",
"l. c #D4A33C",
"z. c #DAA53C",
"x. c #DCAA3C",
"c. c #D4A83A",
"v. c #D4A935",
"b. c #E2A533",
"n. c #E3AB35",
"m. c #EAAE35",
"M. c #E3AD3B",
"N. c #E9A838",
"B. c #EDB136",
"V. c #E4B23D",
"C. c #EBB23B",
"Z. c #E4B235",
"A. c #F1B53B",
"S. c #AC8447",
"D. c #B68947",
"F. c #BC9647",
"G. c #A98858",
"H. c #B78B52",
"J. c #B89557",
"K. c #AD904E",
"L. c #B59669",
"P. c #BDA255",
"I. c #C29544",
"U. c #CC9442",
"Y. c #C59B42",
"T. c #CC9B43",
"R. c #CC9D4C",
"E. c #C6974A",
"W. c #D39C43",
"Q. c #D39D4A",
"!. c #D99D41",
"~. c #C79B56",
"^. c #C28E46",
"/. c #CDA243",
"(. c #CDA24B",
"). c #C9A747",
"_. c #D4A343",
"`. c #DBA543",
"'. c #D5AA44",
"]. c #DCAB43",
"[. c #D4A44A",
"{. c #DAA44B",
"}. c #D4AC4B",
"|. c #DCAB4B",
" X c #DCB345",
".X c #D4B34D",
"XX c #DDB34B",
"oX c #DAB546",
"OX c #CDA359",
"+X c #D3A553",
"@X c #D5AB53",
"#X c #DBAB53",
"$X c #D7A859",
"%X c #D5B252",
"&X c #DDB253",
"*X c #DCB954",
"=X c #DCB859",
"-X c #E2AC43",
";X c #E3AD4B",
":X c #E4A948",
">X c #E3B244",
",X c #EAB544",
"<X c #ECBA45",
"1X c #E4B34C",
"2X c #EAB54C",
"3X c #E5BA4C",
"4X c #EBBB4B",
"5X c #E7B945",
"6X c #F3BA43",
"7X c #F1BA49",
"8X c #E3AC52",
"9X c #E4AE56",
"0X c #E3B453",
"qX c #EAB553",
"wX c #E4BB54",
"eX c #ECBC54",
"rX c #E4B45B",
"tX c #E3BB5B",
"yX c #ECBD5B",
"uX c #ECB458",
"iX c #F2BC55",
"pX c #F3BD5B",
"aX c #C6A669",
"sX c #D7A963",
"dX c #D9B964",
"fX c #CBA773",
"gX c #D9B677",
"hX c #D4AD74",
"jX c #E9BB64",
"kX c #E7BC75",
"lX c #EAB766",
"zX c #E5C15D",
"xX c #EBC35B",
"cX c #EBC357",
"vX c #F6C559",
"bX c #F5C652",
"nX c #E5C362",
"mX c #EDC362",
"MX c #ECC768",
"NX c #F3C363",
"BX c #F7C966",
"VX c #F9D56D",
"CX c #F9CC74",
"ZX c #FBD674",
"AX c #EBC576",
"SX c #FFE37B",
"DX c #CFB483",
"FX c #D6C69A",
"GX c #F3CC89",
"HX c #F0CF92",
"JX c #FFF290",
"KX c #FFEDB8",
"LX c #F2D3B1",
"PX c #FFF6D7",
/* pixels */
"                                                        PXKXLXHXgX~.$X$X+XR.~.sXkXGXGXHXJXKXKX                                                        ",
"                                                    LXDXG.G.H G.A M v 6 > 6 6 6 < 8 m F.aXDXgXFXFX                                                    ",
"                                                fXG.F F n - - 5 < 6 6 6 8 8 6 < 6 & $ X $ ; v J.FXDXFX                                                ",
"                                            G.H F F D = - Y [ A E.+X[.$XlX#X#X@XF.E.jXF.F.v # # # m P.aXDX                                            ",
"                                          F H.x $ & f XXjX0X|.yX=XCX@X{ ' Y.&X&X(.#XAX(.sXdX$XOX) % $ c H.G.aX                                        ",
"                                      G H.1 X q 4.yXBXM.#.*.>.6.T.CX/.0 f 0.jX8XuXrXT.T '  .(.$X|._.9.u 1 & m J.                                      ",
"                                    n v # < |.vXiX>Xs.p.P I P `.h }.Y 0 ^ _.yX_.NXqXg V f 7 ' {.;Xw.w.`._.Q 8 x S.L.                                  ",
"                                H H < 1 8.pXbXZ.Z.o.z I Z.bX4X7.{ }.Y 4.0X'.;X:XeX2XT qX_.y g 4.`.y.w.=.e._.{ 9 x x F                                 ",
"                                A + 9 rX0X4XbX>.s.o.p.k. Xl.W /.xXwXXX1X1XXX].1X2X2X$.`.eX$.g d a `.e.;.e.#.w.y.^ v c F                               ",
"                              o # ' pX0X1XbXZ.Z.Z.p.p.7.].|.8._.wX*XXXXXXX].1XiX-XiXvXz.L R R @.a R z.-X,.I l Z 7.^ A S m J.                          ",
"                            X 5 0.BXeXc.vXbXo.>.p.V.4X]._.[.T.@X.XoX X'.c.c.-X2Xx.#.y.@.r T R ~ |.d 7.;Xj.j.@.@.W 1.1.C c c H.                        ",
"                          X B Y.wXx.c.5XbXbXk.V.p. X3X`./.).(.tX}. XXX Xc.l.h.h.j.t.-Xq.~ -.9.0X|.f g 5.l.z.&.+.j @.! C ` S D n                       ",
"                        . B 0Xl.7.:.3XvX>Xj.M.,.V.c.W -.'.&XrXzX1XoX Xc.].c.h.:.t.BXt.T 5._.T.8./ q.E 5.!.u.%.&.@.&.l Z 2.` S D                       ",
"                      . B |.`.-Xh.x.x.4X>X:.=.=.*.;.-.c.eXeXcXeX3XoXc.g.7.c.e.:.x.pXp 4 W.Y.~ Q _.yX-.*.:Xi.i.3.&.&.Z M ` ^.S c b                     ",
"                    # & NX`.b.n.>.j.z.2Xz.j w.BXr r.-X4XbX,XcX5X3XoXc.g.:.h.h.7.h.qX_.8.T._ ' mX|.t.L k 3.u.3.Z l Z Z C C C C H G b                   ",
"                  b # lX`.M.m.o.x.`.;XiX7.k ;XvX@.2X,X>X5X<XbXZ.3X4X1Xx.c.z.l.q.R q.|.T g ^ Q /.-.r ;.%.+.u.@.l l u d ` C M ` H F n b                 ",
"                S.# (.wXj.M.C.b.7.].].1X|.4.-.l.y.l.`.>X2X<XcXbX5Xc.x.x.j.`.y.5.5.pX5.l ! @.1.$.e.L l :XU.u.u.@.l u z p p Z 2.S v n A                 ",
"                + N |.`.4XM.r.j.h.'.xX'.yX-.5._.l.`.>X4X4X5XV.V.V.V.x.x.l.:.5.5.!.!.k p l p z %.%.&.Z !.3.3.u.&.l l l l l @.&.M S J.n n               ",
"              < $ jX|.x.,Xa.<.b.q.l.vXf.yXf.-.`.l.z.>X2X4X<X>XV.k.V.k.j.e.W #.`.`.@.l l k L z @.X.;.&.3.@.9.u.$.@.@.&.#.@.&.1.M S ^.S.A +             ",
"            fXX U.NXc.4Xk.,.n.r.:.'.0X7.`.1XW ].x.].-X>X,X<X<X7Xv.k.h.p.h.P #.eX`.R &.l k r.%.=.#.w.R L Z u.u.w.y.r.r.r.w.3.%.Z C S D.A n             ",
"            - c |.l.h.bXk.N.N.,.7.l.1X5.l.eX7.1X].-X-X>XM.M.C.V.p.k.,.,.j.*.#.pX;Xl k j j w.,.w.<.;.j l l u.9.:X:X:XM.z.y.t.w.3.` _ S D.S.=           ",
"          m + 8X_.j.>XV.n.,X,.N.k.h.eX( 1X3XiXqX:.:.j.`.-XM.M.M.Z.k.p.v.j.=.=.2X-Xj l #.@.@.@.=.r.=.j j p t.y.:X-X,XM.M.-XN.t.W.9.U.Q A S.n           ",
"        fX+ M u.M.>XbXk.M.N.r.C.j.h.2X;.].1XBX`.P W ;.h.x.M.M.M.V.k.j.k.e.=.:.-Xz.*.L ;.;.L #.@.<.#.#.j e y.:X-Xn.,XM.x.-Xj.w.y.`.~ 8.u [ m *         ",
"        H.1 $.w.M.>.Z.6X,X,.N.b.,.l.j.l.:.eXvXh.-.*.;.,.p.j.n.C.M.k.k.x.,.=.e.z.,X;XX.j p L j.w.#.*.,.k 4 :XqXz.z.,XM.j.-Xe.;.9.t.g 1.! B S.;         ",
"        < 9 u.n.,.C.V.V.n.r.b.r.:.j.7.2X X3XZXf.t -.;.P *.X.-Xj.M.x.j.j.x.z.M.j.h.-XL ;.y.2XeXqXx.r.`.L p y.9X:Xz.2X<Xj.-X;Xy.;X7.7.1.! M ) A .       ",
"      hX$ 1.;.j.n.C.Z.5XM.,.n.n.j.e.h.1Xx.wXSX:.(  X].*.*.X.b.j.-X2X:Xj.j.z.j.7.L j.e.`.;.#.R W r.5.j.~ @.:XuX:X:X7XP e.M.R 5.@.7.t.t.5.C A H *       ",
"      H.$ `.,.a.V.M.k.2X>X,.j.Z.p.P >X`.f.oXVXg.6.vXeX-.#.I =.=.b.-X,Xb.b.M.z.e.1Xe.-.*.R 5.t.:X7.#.3.@.3.9X9X!.y.1X#.;.;.p 1.~ K ~ 5.q.$.A H b       ",
"      < 3 h.j.<.j.k.j.2X>X,.p.p.>.P >X5.c.'.cX'.d.MXvXl.e.=.#.@.@.=.r.r.:X-Xj.z.iX#.#.$.~ 3.~ $.;.R k Z U.9X9X!.t.-X;XL p ~ ! 1.w w d 1.1.C ^.n .     ",
"    gX$ ^ :.p.,.,.x.`.1X].h.v.p.h.6.1X( wX*XoXoX'.BXBX1Xl.l.;.;.@.r X.;.e.z.e.-Xr.j $.R d d V 3.4.V w u 2.{.{.U.;X{.W.k p 1.! M E d 3 g ` 2.^.H @     ",
"    P.% W h.<.s.j.;X|.;Xx.7.k.k.>.`.vXf.XXf.d.MX*XzXmXXX-.5.$.5.y.l @.3.w.e.w.pX5.a a w 3 d {.CX5.1.d u C ` ^.3.{.|.$.5.V y 9.` [.9.i 2 M ` E.H D     ",
"    S.> W k.,.j.`.;X9XyX1Xg.k.V.>.l.BXwXd. ..XMX.X).*XXXg E $.y.:X%.y.y.e.w.=.iX#.j w w $.! Q.8X~ W.` M S M C 2.Q.|.9.`.! 8 Q.Q.+X@X! 2 w M ^.D.b O   ",
"  hX) % -.x.j.j.M.;X0XCXxX7.c.3XXX6. XxX)..XMX*Xd.| zXMXT 4.t.;Xu.%.;X-Xw.w.&.2Xl k i k [.2.Q.U.2 U.2.C M S 2.U.uXQ.8Xu.C ` 2.2.4.rXq.u 2 M E.H.G *   ",
"  kX5 8 7.7.x.bXR ].ZXMXtXMX| .XcX..c.zX..MX.X).| }.zX[.C 3.:XW.:X5.R 5.{.R Z pXk y , y $.U.` M 3.lXM Z V 2 q.1.9X|.U.1.k W.q.`.'.q.c.E i 0 I.~.m O   ",
"H.dX< 9 0.f.z.>XvX$.0.BXJX=XzX).d.cX...XnXMXzX.XnX).Y./.4.2.9.! @.p @.{.5.$.1.1.! Z C ! C C ` ` U.Q.C $.4 k `.{.{.U.1.' V _.c.`.].'.]./ J f F.~.H o G ",
"D.kX% f q.c.c.].BXh.i |.tXZX=XF.6.VX*X*XVX*X*X=X.X=X/.} rXlX[.! 1.e.8X-Xk k $.C 3.8.9.9.1.M C U.{.2.3.C > 4._.8X8Xu.1.C V _.z.z.l.c.'./ E i [ sXH O b ",
"S.kX> Y q.l.h.k.>XeX&Xf %XCX..).oX*XSX*X*XzX}.).}. .' [.rX#XT.U.1.8X-XR ~ $.$.u.9.3.2.3.3.1.9.W.Q.C 1.Z , `.y.;X9XU.2.V g t.`.].f.'.c.( W 7 Y OXH @ * ",
"A AX> ! g.f.h.c.].eXmX .=X=X .%XzX.XzX..=XMX/.Q }._ 8.T.Q I.&X' `.;Xt.$._._.$.~ 1.$.$.1.u.W.Q.Q.C C N d %.;X|.8XW.1.9.C ! t.|.]._.'.].( R 3 C sX~.@ = ",
"A kX% Y 6.:.j.j.x.1Xf.mX%XzX). ..XVX.X..BX}.T.^ q [.T.s I.MX$XN |.e._.l.k k Z p ! 1.1.1.9.Q.!.Q.d M p k `.`.l.W.9.! 9.! $.q.l.t.'.].XX~ Y 8 [ sXH.@ @ ",
"A kX% f l.>.x.h.>Xc.xXwXVXdXCX| ..MXMXnXjX0.T.Q., 2.N [ CX$XB Y.! k %.@.w e @.1.$.9.u.3.3.Q.U.1.d y y 3.7.l.-.$.q.! 8.V 1.q.z.q._.'.XX-.h 8 D.$XH = @ ",
"[ kX% y '.-.V.h.h.g.XX0X=XMX..VX....ZXZX_._.{.8X$X1.Q.NX&XF.| } _.].5.$.`.`.5.q.9.W.3.C 2.8X2.2 M , u {.W `.*.4.W.! ` y ! y.3X;X_._.uX4.h 7 U.OXH = @ ",
"S.CX% ^ 6.( c.>.c.x.`.0XtXZX.X.X.XJ nX*Xd.NX9.! Q.W.{.rX=XI. .} ~ W R L R R $.5.u.4.V 1.8X3.d V 3 d q.9.7.x.5.l._.3.` y 1.y.].|._.|.NXE ' , E.OXH @ : ",
"A GX5 Q q.c. Xx.E 7.f.0./ &X%XzX.XnXd.d.xX0X9.V d 1.9.8.} I.F.{ 7.t.-X;X`._.`.:XV T 3.t.1.d u d i V t.h.j.`.7.t.{.` U.d ~ 8X`.1X|.;Xl.T ' 6 OX~.H @   ",
"G.hXv 9 0. Xc.x.j.l.l._.{ XX'.'.).zX..oXZXNX|.y 3 1._.T.T.$X@X0.W L R #.%.W R R R V 9.{.C k V 3 ! $.z.`.`.`.t.l.;X! Q.! T uXl.;X].0Xq.~ Y > $XJ.H X   ",
"aXaXF.$ ^ 6.( ;.l.;.].qX0XwX}.'.zXc.oXoXwXNX~ 4 f ~ 8.0.{ { { ^ t.7.;.;.#.K k W 5.$.t.9.k d d p 8.5.t.t.h.c.l.`.|.1.T.9.V ;X_.`.{.0Xq.4.0 s OXS.G .   ",
"  K.aX# B J Y / L e.qX].4.4.7.l.3Xl.wX:.l.xXK / 6.f._.[.[.#XpXBXl.z.].y.W p k W @._.u.V y 2 d 9.W.y.l.l.l.h.j.`.|.W.3.W.V W.;X`.qX{.q.Y s (.aXm :     ",
"  G.gX# 9 J 6.XX7.;X;X4 4 K ;.7.t.-.`.`.f.XXwX*XzXzX*X)._.{.Q.u.`.7.;.l.z.5.$.$.t.W.R p Z V ! 8X{.;X].1X-Xc.].].|.8XU.W.! 5.eX;X;Xu.9.w 9 $X~.S.O     ",
"    DXv 5 Y '.ZX-X`.l + p l.e.e.7.W h.wXg.d.xXzXc. .E { f.|.:X9X2X#.r a #.-.%.4.`.R y d 5.W.u.W._.`.t.j.h.;.-X;X|.9X[.1.1.4.|.].t.5.1.i Q R.~.S.      ",
"    gXK.& ^ XXJXpX:.4 1 t.M.X.X.z X.U h v.v.f.SXSX6.0 J W R w.uXZX;XL e 4 4 #.;X$.4 2 R ! 1.9.~ $.4.k T I j c.1X:X`.8XR ~ ~ 4.W.q.' i s [.R.F.b       ",
"    G.aXc Y f SXJX4Xh E V.<.+.O.+.X.z U I e ( VXJXxX-.;.u.b.i.w.e.:.#.j , , L !.w y p k ! 2.] ` ` Q 1.W r X.V.h.k.c.].3X4.Q }.0.J q Y ).[.R.D.        ",
"      FX5 6 f .XSXZX'.P X.O.O.+.O.O.O.s.<.e r |.BXh.#.e.r.b.r.<.z.K 4 4 e K w.y.p p d u s u 7 6 M 7 i i 4 I x.x.x.>Xc.].6.~ Y 0 Y q  .[ U.$XH         ",
"      L.F.> f J '.VXBXx.=.<.N.i.<.i.<.b.n.,.P X.P r a @.X.X.X.l t e j 7.z.:X-Xr.%.5.9.W.{.#X#XrX[.[.9X8Xl.`.-X7.h.2X7.0XrXtXT./.%X}.0X8.R.E.          ",
"        GX< 7 a J h.eXeXb.O.N.N.A.6Xn.>.s.M.>.t e 4 z #.=.o.=.;.5.h.;X2XM.z.z.z.%.%.5.t.W.T.W.W.8X{.{._.9.`.:Xy.z.qX5.;XW.&X[.@X/.}.8.R.E.A           ",
"        gXF.1 w R -.7.z.%.X.<.r.M.V.k.p.<.j.s.<.C.n.V.7XiXbXvXiXvX3X].j.e.e.b.r.r.t.z.`._.q.9.9._.t.t.5.y.;XuX:X:X8X1.{.V T.T.{ 6.~ ~ +X)             ",
"          kXc 7 ~ t.7.5.&.X.&.X.j.P =.V.V.b.n.6Xn.<.,.h.r.j.l.h.x.h.h.j.j.M.-Xj.j.j.z.-X].h.q.7.*.5.7.e.W.`.u.3.9XW.5.8X' |.#X^ 0XE @X$Xm             ",
"          hX~.s y 5.e.e.e.;.;.;.].E ( ,X7Xn.i.<.o.+.o.p.j.>XwX X1X X>Xx.,.h.n.j.,Xb.b.M.`.r.:.;.j.x.e.;.y.;XuXuX8X8XW.|.q.T._.K W.! (.[               ",
"            kXs , $.1.7.u.@.5.0XE E f.1X>XC.C.a.m.i.n.C.1XoX X'.x.x.V.V.M.Z.M.<.j.<.=.e.z.j.j.x.p.k.x.x.1X2X:X!.3.9X;X{.|._.'._.5.$XI.m               ",
"            hXsXS M 9.w.5.q.|./ Y '.f.cX>XM.C.6Xb.Z.C.bX>XoX*XoXx. X>X>XZ.k.n.n.a.a.a.,.<.,.z.C.n.s.k.>X-X7X;Xa &.9X;X7._.'.f.q.W.R.D.                ",
"              HXOXM ~ u.~ 8Xf.f 0.@X/.1X2X>XM.a.M.k.Z. X4X3XoXoX3X5X>XV.Z.M.n.M.n.m.n.b.j.n.C.5XV.5XV.>X,X-X`.*.pX%.w R l.l.6.4.9XD.                  ",
"                GXE._ ~ 9.f././ 0.tXtX0X0X-X,X-X4X4XV.x. X XV.oX3X5XV.x.V.Z.C.B.N.C.B.B.B.C.C.<X<X,.>X4X;.r.iX;X:X4 3 f.'.7.g./.A )                   ",
"                fXkXI.N /.W }._.~ /.[.{ /.f.|.].].2X1X5XoXV.c.cX X5X Xk.V.C.C.C.A.A.B.B.B.A.C.C.,.f.l.l.1XqX;XeXp a h.0X_.f.).(.m                     ",
"                  hXOX#Xk f.6.6.0.8.' f q.%X0X).4.7.'.wXcX4X5X XV.>X Xk.k.,X6X6XA.B.B.A.A.A.A.,X4.N [.&X0.0X{.w R ].}.q.}.%X} ) S.                    ",
"                    kX[.}.K ( 6._.[.W.^ Y.@X%X%X.X| 6.oXoX>X5Xc.oX1X].j.x.C.6X6XB.B.B.B.B.B.B.,X' OXlX8.N ! a T T.&XT.} OXE.9                         ",
"                      AX6.'.h l.~ q.[.9.' F. .OXnXY.d.'.:.v.5Xk.>X>Xx.c.M.,XC.a.m.m.m.m.m.B.A.7XlX~.kXE.6 Q Y.{.0.T.T.R.E.v                           ",
"                        nX.Xc.J ~ 8.W.R.} (.) ).OX .*XxXg.g.5X X X].x.x.2X2Xs.U C.6X6XA.B.A.6XpX+Xv v 8 N [.9.q._.8.(.+Xm                             ",
"                          dX).).Y E &XQ #XY.+XS _ I.}.}..XoX XoX].].XX'.NXl.l.cX>XiXj.g.bX>Xk.>.% ).).6.h.;.7.l.{.rX^.A                               ",
"                            dX).)./.d.T T.0 U.$X9X8.N f { *XxXcX}.wX|.4.&X}.|.tX^ E c.> K BX:.h / oXg.l.-Xe.h.:X8X8.5                                 ",
"                              aXZX).*X/ ( l.'.f.`.`._.|.{.8.Y 0 ] 8.] Y [.#X&XrXjXY |.Y 4.NX8._. X].7.h.l.h.:X#XE.                                    ",
"                                v nX=XwXoXJ >.g.>.7.t._.T.U.#XlX` Q V 8.rXrX#XrXQ T.#XT.jX[.{ {.`.j.z.].|.rX$XB                                       ",
"                                    F.nX*XzXg.>.v.,.e.z.`.W.9.U.#XW.4.W._.4.f i ! MX8.{ CXM N NXy.;XBXBXR.[                                           ",
"                                        dXdXzXoXoXj.>.5.t.W.!.W.7.h.7.l.`.pX0Xf.tX4 Y q.9 9 dX&XCX8XQ.8.c                                             ",
"                                            P.nX.XwXeX3X>X-X:Xz.h.c.g.>.( x.j.-.K f.wX0.tXVXMX%XQ.] D.                                                ",
"                                                K.F.}.}.}.1X>Xz.cX5XoXvX3XBXBXVXBXxXMXMX%XF.).) A                                                     ",
"                                                    x v ) | d.'._.'.{.&XXX[.T.T.).P.F. .) - -                                                         ",
"                                                          - & % 6 < 5 5 8 5 5 8 - # # o o                                                             ",
"                                                                G b ; = @ + + @ = b                                                                   "
};
