/* XPM */
static char *a4e76df6f4e948eca8264e8e472219d5lZ51EXH054VtSslP[] = {
/* columns rows colors chars-per-pixel */
"75 75 256 2 ",
"   c None",
".  c #0B0201",
"X  c #140201",
"o  c #361B00",
"O  c #281104",
"+  c #342705",
"@  c #2A292A",
"#  c #252A37",
"$  c #322E33",
"%  c #471D04",
"&  c #432100",
"*  c #6D2F0C",
"=  c #622F26",
"-  c #744516",
";  c #5D4A2B",
":  c #734D2F",
">  c #50441E",
",  c #363943",
"<  c #4A4647",
"1  c #494C5A",
"2  c #514F53",
"3  c #494F65",
"4  c #6C544E",
"5  c #374138",
"6  c #920400",
"7  c #920A02",
"8  c #990300",
"9  c #97130A",
"0  c #9C1C12",
"q  c #8B0C03",
"w  c #A61C02",
"e  c #B21A09",
"r  c #9C2700",
"t  c #963A06",
"y  c #A52803",
"u  c #BA2805",
"i  c #A73819",
"p  c #AF3706",
"a  c #C41F01",
"s  c #C52906",
"d  c #D52D07",
"f  c #C93305",
"g  c #D33809",
"h  c #CB2D19",
"j  c #CC3514",
"k  c #D33514",
"l  c #D32F16",
"z  c #964602",
"x  c #925214",
"c  c #B94400",
"v  c #A55B16",
"b  c #AF4A0F",
"n  c #8D522F",
"m  c #B34D2C",
"M  c #A8672B",
"N  c #BA6C33",
"B  c #B87436",
"V  c #A96F3B",
"C  c #C94901",
"Z  c #CB5400",
"A  c #CA5706",
"S  c #D35902",
"D  c #CD5A19",
"F  c #D35314",
"G  c #D74609",
"H  c #E65314",
"J  c #CB6800",
"K  c #DA6900",
"L  c #CE7500",
"P  c #D87501",
"I  c #D77716",
"U  c #E46D03",
"Y  c #E87803",
"T  c #F57E06",
"R  c #EA7718",
"E  c #F67B1A",
"W  c #E76D14",
"Q  c #CC5B23",
"!  c #D55F23",
"~  c #C65535",
"^  c #C97936",
"/  c #CB6F2A",
"(  c #FA7A26",
")  c #FC7935",
"_  c #ED7027",
"`  c #AA7446",
"'  c #A97457",
"]  c #B27558",
"[  c #B66B49",
"{  c #9B776F",
"}  c #AE6F62",
"|  c #AC7465",
" . c #B47567",
".. c #B37A73",
"X. c #9C5043",
"o. c #CE6E49",
"O. c #CA7D6B",
"+. c #CF7D6F",
"@. c #E67D76",
"#. c #DD820C",
"$. c #EA8607",
"%. c #F48302",
"&. c #FB8504",
"*. c #FD8B06",
"=. c #FE8D0B",
"-. c #F6880B",
";. c #FE9505",
":. c #F69B02",
">. c #FD9C04",
",. c #FE940B",
"<. c #FE9A0A",
"1. c #F59609",
"2. c #E88917",
"3. c #FB8415",
"4. c #FD8C13",
"5. c #FD8C1C",
"6. c #F88619",
"7. c #FE9413",
"8. c #FF9B13",
"9. c #FD931B",
"0. c #FE9C1B",
"q. c #F49715",
"w. c #ED9214",
"e. c #FEA105",
"r. c #FFA30A",
"t. c #FDA90B",
"y. c #FFA414",
"u. c #FEAB15",
"i. c #FEA31B",
"p. c #FEAA1C",
"a. c #F7A21B",
"s. c #FFB31C",
"d. c #FFB716",
"f. c #E88725",
"g. c #FE852A",
"h. c #FB8925",
"j. c #EB972A",
"k. c #FE9422",
"l. c #FE9C2B",
"z. c #FB9928",
"x. c #FA8734",
"c. c #F89838",
"v. c #EB9238",
"b. c #FFA423",
"n. c #FEAD24",
"m. c #FFAD2C",
"M. c #FAA22B",
"N. c #FEB222",
"B. c #FEB929",
"V. c #ECAB39",
"C. c #FBA734",
"Z. c #E7B33C",
"A. c #FFB33C",
"S. c #FDBB3C",
"D. c #FEB733",
"F. c #EBA42E",
"G. c #DA8938",
"H. c #FFC11C",
"J. c #FFC12C",
"K. c #B38A56",
"L. c #97837D",
"P. c #B48574",
"I. c #CD9454",
"U. c #F89748",
"Y. c #EF984B",
"T. c #FFBC43",
"R. c #FEBB49",
"E. c #E8A74E",
"W. c #C78876",
"Q. c #D48878",
"!. c #CC8C6E",
"~. c #F48C7C",
"^. c #FBB170",
"/. c #FFC24B",
"(. c #9C8883",
"). c #9D9292",
"_. c #A88B86",
"`. c #B58A8B",
"'. c #B9948C",
"]. c #AD9390",
"[. c #BDAA99",
"{. c #BBB2A3",
"}. c #CC9483",
"|. c #C69689",
" X c #D5968A",
".X c #D59A93",
"XX c #CB918B",
"oX c #FF9996",
"OX c #FF8E8B",
"+X c #C8A79C",
"@X c #D7A49B",
"#X c #DBA18D",
"$X c #FFA19D",
"%X c #FDBD96",
"&X c #EEAB8F",
"*X c #C9AAA7",
"=X c #D9ACA5",
"-X c #C9B3A9",
";X c #D9B6AA",
":X c #CBB6B5",
">X c #D6BAB7",
",X c #D0ADB1",
"<X c #E7B6AA",
"1X c #F2B7AD",
"2X c #D9C4BC",
"3X c #CDC2BC",
"4X c #FCC5AA",
"5X c #E7C6BC",
"6X c #FFCAB4",
"7X c #FFC6BB",
"8X c #FCC8B7",
"9X c #FFD3BC",
"0X c #FFDBBC",
"qX c #FCD2B5",
"wX c #F7CDAE",
"eX c #FFE2BF",
"rX c #D9BCC6",
"tX c #CCB5C5",
"yX c #D3C4C4",
"uX c #DAC7C7",
"iX c #D3C7C9",
"pX c #E9CAC6",
"aX c #F6C9C7",
"sX c #E7D3CA",
"dX c #FED5CC",
"fX c #FEDACC",
"gX c #FAD5C6",
"hX c #EAD6D6",
"jX c #FCD5D2",
"kX c #F6DAD5",
"lX c #FDDBD6",
"zX c #FCDCDB",
"xX c #F6D7D7",
"cX c #F0CDD5",
"vX c #FFE5CA",
"bX c #FFEDD4",
"nX c #FFE3DC",
"mX c #FFEADC",
"MX c #F9E4D7",
"NX c #FFF3DB",
"BX c #FFF6D8",
"VX c #EBE3D5",
"CX c #FBDDE5",
"ZX c #ECDDE0",
"AX c #FCE3E3",
"SX c #FFECE2",
"DX c #FFECEC",
"FX c #FCE6EA",
"GX c #FFF4E3",
"HX c #FEF2EC",
"JX c #FEF9E7",
"KX c #FFECF2",
"LX c #FFF3F3",
"PX c #FFFBFA",
"IX c #FFF8F6",
"UX c #EEE2E4",
/* pixels */
"                                                                                                                                                      ",
"                                                                                                                                                      ",
"                                      KXDXDXFXSXFXCXFXCXCXCXCXzXCXzXjXxXxXxXxXzXkXzXkXkXkXzXzXzXkXxXzXDXJXIXHXHXLXKXKXFXSXLX                          ",
"                          hXhXhXhXxXhXxXxXcXcXjXcXcXxXcXcXcXaXaXaXaXaXaXaXaXaXpXpXpXaXpXpXsXpXsXpXpXpXhXUXUXVXhXuXDXxXuXUXCXrXCX                      ",
"                        SXnXnXmXSXAXAXAXCXAXzXzXlXlXzXzXjXjXdXdXjXjXjXjXxXjXxXhXjXkXkXkXkXkXkXkXkXUXCXFXKXDXGXZXDXKXFXhXHXKXhX                        ",
"                    >X>X<XpX5XgXgXgXfXjXfXjXfXdXdXjXjXfXjXjXdXgXfXlXlXlXlXlXlXlXzXzXzXnXnXnXSXmXzXnXAXFXAXnXnXnXzXCXxXcXsXyXyX                        ",
"                      5X{ |  .| ' ' ] ] ] ] ] ] ] }  .}  .] ]  .' | | } } } } } } } } }  . . .| | P.P.O.O.O. . . ...`.*XuX                            ",
"                        +X@XgX9XqX4X4X1X%X4X4X4X6X8X6X6X8X6X6X6X8X7X7X7X7X7X7X8X7X7X7X7X7X7X7X8X6X6X4X1X1X1X1X1XXXjX                                  ",
"                          fXP.0X#X+.@.@.OX~.oXOXoXoXoXoXoXoXoX$X$X$X$X$X$X$X$X$XoX$X$X$X$X$XoXoXOXOXOXOXOXQ.0X5X.X                                    ",
"                          mX'.bXQ.q w 0 8 8 9 6 7 7 q 9 9 9 9 9 q 9 9 9 9 9 9 0 0 0 0 0 0 0 0 0 0 0 e 9 7 q <XpX*X                                    ",
"                            +XBX&Xy h d k h s l h h h h h h h h l d l l g l k k f j j j j j j j l h h s u i qXqX-X                                    ",
"                            {.BX$Xw s a s u u e a a a s a l s s d d d d d d d d g k g g k k G g d H H G s i 9X5X:X                                    ",
"                            {.bX%Xr u a e w 7 8 8 8 6 6 6 6 6 6 6 6 7 6 8 7 7 7 8 7 7 7 7 7 6 6 e G d f u m dXpX2X                                    ",
"                            {.bX%Xt h e ) _ 7 ! ! H D D D D D D Q D Q D D Q Q D ! ! ! ! ! ! Q D e _ W H s i jXpXuX                                    ",
"                            -XbX8Xi s a ) _ r C.c.c.C.A.D.D.J./.T.J./.S.T.A.A.A.C.C.C.M.M.l.l.k.c x.g.g.G F nXpXrX                                    ",
"                            -XvX7Xi u d _ _ r h.6.q.F.V.Z.Z.Z.Z.Z.E.Z.Z.Z.Z.V.V.V.V.F.j.q.<.,.6.c g.k.k.F b nX>XuX                                    ",
"                            ;XgXqXi u u x._ t x.$.C.- O o O o o o o + o o & & & & & o * j.=.7.3.Z g.k.k.A m mX>XuX                                    ",
"                            2XfXgXi j u g.R r g.-.c.* X X . . . . . . X X X X . . . X % v.7.9.3.C g.k.h.G m SX>XuX                                    ",
"                            2XgXgXm u u x.R w ( E c.= O @ @ @ @ @ @ $ < < < 2 < < < , : U.7.4.T Z g.5.k.F ~ mX>XuX                                    ",
"                            uXgXvXm u s g.E y ( T j.n O $ $ $ $ $ # , 2 1 1 1 1 2 2 2 : c.*.=.3.S g.5.h.F ~ SX>XuX                                    ",
"                            sXaXlXm p u g.E w ( 3.z.n O # # # # $ $ , 1 1 1 1 3 1 2 2 : v.1.7.3.G h.5.k.F ~ mX:XhX                                    ",
"                              5XmX[ u u g.( w ( E c.- O @ # # # # # , 1 3 3 3 3 1 2 2 n v.4.4.-.S h.5.5.F ~ mX:XhX                                    ",
"                              5XbX[ u u g.E w ) h.v.n O @ # # # # # , 1 1 3 1 2 3 2 2 n Y.6.4.3.S h.4.h.F ~ SX>XsX                                    ",
"                              2XMX[ u s g.E y ) R v.n O @ @ # # @ @ $ 1 2 1 2 2 2 4 ; n v.6.5.E G h.5.k.F o.mX:XhX                                    ",
"                              gXbX[ u f g.E r ) f.v.x X o O O + + + + ; ; ; ; ; : : - x j.w.4.-.Z g.9.k.C o.SX-XhX                                    ",
"                              sXGXO.y f h.( 9 x.R j.I.M ] | K.K.K.K.I.I.!.I.I.E.I.E.E.Y.z.%.-.-.Z h.9.h.F o.SX:XZX                                    ",
"                              sXGX!.y f g.E w ) E Y _ U.U.U.U.U.U.U.U.U.U.Y.E.Y.v.v.f.f.6.%.=.-.Z g.9.z.A o.SX:XZX                                    ",
"                              sXJX!.y f h.6.9 x.E K Z Z Z Z J S J J A J S S J L K K K P Y $.,.-.Z k.9.g.C o.GX:XUX                                    ",
"                              sXJX}.y f h.3.r g.9.<.8.b.b.b.i.p.i.b.u.u.p.p.p.u.y.i.p.p.y.y.u.-.Z z.9.l.A o.FX:XUX                                    ",
"                              sXJX#Xy g 6.6.y g.b.p.u.u.n.N.d.d.s.s.s.d.s.s.d.d.d.u.y.y.y.<.y.$.A k.9.l.F o.SX:X                                      ",
"                                HX=Xy g E 3.p h.,.;.:.:.8.<.>.:.<.e.e.:.>.<.:.:.>.;.,.,.=.%.=.T A l.9.l.D o.HX:X                                      ",
"                                IX&Xy G E 3.p E 7.;.:.:.<.1.:.:.>.>.:.:.>.>.>.:.;.;.=.,.=.T 3.T Z l.q.M.A o.GX:X                                      ",
"                                JX<Xy g 6.5.p E 7.;.:.:.>.;.>.>.<.>.e.:.>.>.>.>.;.;.,.-.0.Y =.T S k.a.M.C o.LXtX                                      ",
"                                JXwXp f 6.7.u E 9.,.:.:.>.>.>.>.<.>.>.:.>.>.>.>.;.:.8.z.A.2.6.T A C.j.v.b +.DX:X                                      ",
"                                IXqXp C h.3.p E 4.,.>.>.>.<.;.<.<.;.>.>.<.<.;.;.1.a.D.A./.2.-.2.b R.^.%Xi  XIXtX                                      ",
"                                JX0Xp g 5.5.p ( 9.,.;.<.<.<.<.<.;.;.<.>.1.1.q.q.n.D.T.R./.#.$.j.v wXbXeX*  XKXtX                                      ",
"                                BXvXb C 3.5.p E 7.,.<.<.8.<.<.,.;.;.1.1.1.a.m.D.S.J./.R./.#.w.2.v bXHXdX= &XKXrX                                      ",
"                                VXvXi C 6.5.C E 9.,.;.<.<.<.,.<.;.;.:.r.n.D.S.S.S././.R./.2.w.2.M BX4 4 n 1XFXuX                                      ",
"                                sXbXb C 3.9.C R 0.;.;.<.<.1.1.:.:.t.u.N.B.D.S.S.Z.S./.R./.2.1.f.M BX> { n .XKXuX                                      ",
"                                sXbXi C 6.k.C R 7.>.1.:.<.>.>.e.p.s.J.J.J.D.S.S./.T.R.R./.2.<.f.B vX5 5X: @XKXuX                                      ",
"                                iXBXv p 5.k.Z W ,.1.>.:.:.>.u.s.B.B.H.J.D.B.D.D.D.D.T.T.R.2.7.w.^ 6X% >XX.,XKXyX                                      ",
"                                3XBXm c 5.k.Z R 8.1.:.>.t.p.B.s.B.B.B.B.B.B.D.B.B.D.S.A.S.2.1.f.^ %X* &X= aXFXhX                                      ",
"                                3XBXm c 6.k.Z R 7.1.;.t.u.u.p.s.n.n.s.s.N.n.n.n.a.n.m.V.A.2.w.q.I U.Y.E.X.$XzX                                        ",
"                                :XBXN c 6.k.Z R 8.<.y.y.y.i.y.a.a.a.a.a.a.b.i.b.n.n.C.D.S.2.w.1.P l.w.v.M 1XSXZX                                      ",
"                                -XNXB c h.k.S R 9.<.,.,.7.8.0.q.0.z.0.i.z.b.M.M.m.m.C.C.A.#.w.1.P 0.,.M.M 1XSX                                        ",
"                                {.NXB b 5.z.S W 9.,.=.4.4.0.k.k.9.9.0.z.l.M.M.M.m.D.A.A.A.w.8.1.Y 1.<.l.M 9XkX                                        ",
"                                {.GXo.z h.k.K W 5.-.*.3.3.3.6.6.5.5.k.k.z.l.l.l.l.z.C.V.C.2.7.=.Y 8.;.k.B 9XHX                                        ",
"                                {.BXo.z h.k.S W -.P Z S K S J L J J J J J L J L L L L L #.P 8.<.P 8.;.z.B 9XkX                                        ",
"                                {.bXI.t 6.k.U U 8.y.u.u.t.t.d.t.s.N.s.N.s.N.s.B.s.s.B.s.N.N.u.1.$.,.;.l.B 0X;X-X                                      ",
"                                [.bX!.t j.0.U U 0.u.d.d.H.H.H.H.H.H.H.H.B.H.H.d.d.d.d.u.u.u.8.%.T ,.1.M.B gX5X2X                                      ",
"                                [.bX!.t h.k.Y U 7.8.u.t.t.t.t.t.t.t.t.t.t.t.t.r.t.t.r.r.,.;.*.T %.,.<.M.B 0X<XpX                                      ",
"                                [.vX^.t 2.k.Y U ,.1.>.>.e.:.e.:.:.:.e.:.>.>.>.>.>.:.;.<.;.*.&.&.&.,.1.M.B 0X;XpX                                      ",
"                                +XeX^.t h.9.T U =.,.<.<.>.>.<.r.e.e.e.e.r.r.r.r.r.>.>.<.,.*.*.&.&.,.,.M.B vX<XsX                                      ",
"                                -X0X&Xt 2.0.R U ,.;.<.<.>.>.>.r.e.e.e.e.e.e.>.r.t.>.>.<.;.*.*.%.&.=.1.M.` vX=XsX                                      ",
"                                -XqX%Xz 2.z.T K 7.,.<.<.e.>.e.>.e.e.e.e.r.r.r.e.r.>.<.<.,.=.*.&.&.,.,.F.B vX=XhX                                      ",
"                                3X5X%Xz w.i.-.P ,.;.<.<.e.e.e.e.e.e.e.e.>.r.e.r.e.>.>.<.;.*.&.T &.,.8.z.V mX=X                                        ",
"                                2X5X4Xz 2.i.4.K ,.;.;.<.e.e.e.e.e.e.e.r.r.r.t.e.>.>.;.;.;.*.*.&.&.=.,.C.V mX=X                                        ",
"                                pX<XwXz 2.y.4.K ,.;.;.;.>.>.>.>.e.e.e.>.>.<.>.>.r.r.>.<.,.;.&.&.&.,.<.F.V mX*X                                        ",
"                                pX=XqXz 2.8.4.K ,.;.;.,.>.>.;.e.e.e.>.<.r.<.<.e.>.>.;.:.;.*.&.T &.,.8.j.V bX;X                                        ",
"                                dX=XqXx 2.0.5.U ;.*.=.;.;.>.;.<.>.>.<.<.<.<.<.<.>.1.;.;.=.*.&.%.&.,.<.j.` mX>X                                        ",
"                                xX=X0Xb 2.0.0.U 7.,.=.4.<.<.<.8.,.8.<.7.7.7.,.,.>.<.,.1.=.-.&.&.&.;.8.j.` nX>X                                        ",
"                                xX@X0Xv $.0.5.P =.%.T T $.$.$.$.$.$.%.$.-.1.-.1.%.1.*.*.*.&.&.&.*.1.8.j.` nX>X                                        ",
"                                CX@XeXv I y.9.Y Y P K K P J L L L K P P P P P P #.Y $.Y %.Y T Y -.,.y.j.` SX>X                                        ",
"                                AX+XeXv #.0.0.1.0.0.b.M.m.m.m.m.m.m.m.m.m.n.n.n.i.a.8.y.0.0.0.7.*.=.8.j.` SX5X                                        ",
"                                AX=X0Xv I k.=.<.,.<.8.0.n.m.m.N.s.u.p.n.p.8.q.8.<.,.,.7.,.=.1.*.&.7.-.G.` mX2X                                        ",
"                                FX=XqXM / h.-.-.=.-.-.2.w.w.q.q.a.q.w.q.w.-.-.$.-.w.2.-.-.-.2.-.-.-.z.G.] bXuX                                        ",
"                                SX=XvXn / f.f.2.2.2.2.f.f.2.2.f.j.f.f.f.f.f.2.f.2.f.R f.f.f.f.f.f._ Y.I.' SX2X                                        ",
"                                xX'.MXn M I.^ ^ ^ ^ ^ ^ ^ ^ / ^ B B B B B B B N N N N N N N N N N ^ M n { HX2XAX                                      ",
"                            IXKXKXCXLXDXNXbXNXNXNXNXNXJXJXJXGXGXJXJXGXJXJXNXJXJXGXGXJXJXJXGXJXGXBXBXBXJXIXPXiXKXPXPXPX                                ",
"                ,XL._.].`.`.|.`.*X].,X>X>X>X-X>X>X2X3XuXuXuXuXyXiXiXyX3XyXyXyXyXyXyXiXiXiXiXiXyXuX2X2XuXsXhXuXuX>X>XrXrX2X-X:X                        ",
"                >X_._.'.].`.`.`.XX`.'._._._._.L.(.(.(.L.L.L.L.L.(.{ L.(.{ (.L.L.(.(.(.(._._.).).).)._.].).)._.]._.`.]._._.L.L.3X                      ",
"PXLXZXpXuXpXcXjXKXKXKXFXKXKXKXKXFXSXSXGXJXGXJXGX                                                          HXJXGXHXSXHXHXGXBXJXJXPX                    ",
"zX+X+X{ |.<X@X@X@X.X.X XOX X X@.Q.+.W.W.!.P.O.W.!.O.O.O.O.W.O.W.W.W.P.W.P.W.P.O.W.P.W.W.| #X7X} |.dX.XP.W.W.P.W.W.!.}.Q.W.W.W.W.}.}.`.W.'.'.'.'.L.gXJX",
"SX5XrX|.,X<X=X=X=X@X.X.X.X@XXX XQ. X}.}.W.}.W.Q.W.Q.Q.Q.Q.Q.}.XX}.}.Q.}.}.W.}.}.}.}.}. XP.#X4XP.=XaX=X X@X#X#X#X#X+X.X.X X X|.}.}.XXXX|.|.|.'.'.].VXPX",
"PXPXPXIXPXPX                                                                                  HX                                        PXPXPXPXIXPXPX"
};
