/* XPM */
static char *ec638048ca2b4a968ad8be5bf635b8ae26P5OLaJBPWqljIy[] = {
/* columns rows colors chars-per-pixel */
"75 75 254 2 ",
"   c None",
".  c #190003",
"X  c #110716",
"o  c #230102",
"O  c #3C0003",
"+  c #3B0308",
"@  c #3A0011",
"#  c #150D24",
"$  c #281226",
"%  c #2B1731",
"&  c #372336",
"*  c #440004",
"=  c #4C0001",
"-  c #43010C",
";  c #4A010B",
":  c #460D00",
">  c #520002",
",  c #53000A",
"<  c #461300",
"1  c #450313",
"2  c #4B0115",
"3  c #4E0119",
"4  c #460618",
"5  c #520116",
"6  c #510019",
"7  c #580E16",
"8  c #5A1319",
"9  c #4F1D0D",
"0  c #690601",
"q  c #771400",
"w  c #6A1610",
"e  c #71350A",
"r  c #500421",
"t  c #4F0221",
"y  c #482833",
"u  c #712C2C",
"i  c #631F1D",
"p  c #714731",
"a  c #3E2B48",
"s  c #553549",
"d  c #4C3458",
"f  c #48304E",
"g  c #514250",
"h  c #7B4046",
"j  c #981C02",
"k  c #811D00",
"l  c #882502",
"z  c #962904",
"x  c #993504",
"c  c #983011",
"v  c #A53A04",
"b  c #AC3814",
"n  c #872B3A",
"m  c #AC2E35",
"M  c #C53E27",
"N  c #955010",
"B  c #A54304",
"V  c #BA470C",
"C  c #B25112",
"Z  c #B06D17",
"A  c #8D4C3B",
"S  c #A64728",
"D  c #B94E35",
"F  c #DC4B03",
"G  c #DC5A07",
"H  c #D74917",
"J  c #DB5517",
"K  c #C94813",
"L  c #E35802",
"P  c #E14A07",
"I  c #EA6705",
"U  c #F26803",
"Y  c #EC7B01",
"T  c #E77803",
"R  c #FD7C04",
"E  c #F57907",
"W  c #E96A13",
"Q  c #E9781A",
"!  c #F47A18",
"~  c #F46D11",
"^  c #C8572B",
"/  c #C54A37",
"(  c #D64824",
")  c #EE5A26",
"_  c #DC6A36",
"`  c #D67031",
"'  c #EB7C24",
"]  c #EC7934",
"[  c #F67A35",
"{  c #F3722B",
"}  c #DF7600",
"|  c #983945",
" . c #8E3241",
".. c #A23D4A",
"X. c #A83546",
"o. c #8D5958",
"O. c #915D5D",
"+. c #854B49",
"@. c #B4525D",
"#. c #A74C4D",
"$. c #956252",
"%. c #AE7553",
"&. c #BA5964",
"*. c #966364",
"=. c #8E697E",
"-. c #A2666A",
";. c #B96F70",
":. c #CB7347",
">. c #CA6E4A",
",. c #C5636E",
"<. c #CB6C74",
"1. c #C8787A",
"2. c #D5757D",
"3. c #CB736E",
"4. c #D96052",
"5. c #E58200",
"6. c #ED8704",
"7. c #F48302",
"8. c #FD8304",
"9. c #F48C01",
"0. c #FC8C04",
"q. c #FC860A",
"w. c #FE8D0A",
"e. c #F4840C",
"r. c #F69403",
"t. c #FC9404",
"y. c #FE9C04",
"u. c #FE930A",
"i. c #FE9C0B",
"p. c #F59607",
"a. c #EB841B",
"s. c #FD8514",
"d. c #FC8A1C",
"f. c #F98719",
"g. c #FF9C13",
"h. c #FD9C1A",
"j. c #FB9515",
"k. c #EF9000",
"l. c #FDA204",
"z. c #FEA30B",
"x. c #FEAB0D",
"c. c #FCA807",
"v. c #FFA313",
"b. c #FFAB13",
"n. c #FFA81B",
"m. c #FDB417",
"M. c #FFB10E",
"N. c #DA8932",
"B. c #E88928",
"V. c #FD8C24",
"C. c #FE842C",
"Z. c #FD8A2C",
"A. c #F78727",
"S. c #FF932C",
"D. c #FC9827",
"F. c #E68435",
"G. c #FE8533",
"H. c #FE8A32",
"J. c #F98638",
"K. c #FD9A36",
"L. c #E5942D",
"P. c #FCA722",
"I. c #FEBA26",
"U. c #FDA438",
"Y. c #FFBC33",
"T. c #D7891D",
"R. c #FFC23A",
"E. c #BB8356",
"W. c #BC867A",
"Q. c #D38852",
"!. c #E6884A",
"~. c #F79A49",
"^. c #E79659",
"/. c #F28C4D",
"(. c #F9A748",
"). c #F6A951",
"_. c #C5847B",
"`. c #D18E70",
"'. c #EC976E",
"]. c #FFAB6C",
"[. c #A87889",
"{. c #D37E83",
"}. c #B9908B",
"|. c #BEA096",
" X c #BEAAA6",
".X c #CA8E8D",
"XX c #C68986",
"oX c #DC8A8E",
"OX c #D7868A",
"+X c #CB948C",
"@X c #D98C91",
"#X c #C49D95",
"$X c #C99996",
"%X c #D69695",
"&X c #D2928B",
"*X c #E28589",
"=X c #E68C92",
"-X c #E69499",
";X c #F29E9C",
":X c #C9A19B",
">X c #D5A49B",
",X c #DAA583",
"<X c #E8A19D",
"1X c #F3A59E",
"2X c #E7B696",
"3X c #CAA7A8",
"4X c #D7A7A6",
"5X c #D9B7B3",
"6X c #D8B0AC",
"7X c #E5ABAA",
"8X c #E4A5A4",
"9X c #F6A8A7",
"0X c #E4B4A9",
"qX c #E8BAB8",
"wX c #FEBDBB",
"eX c #FAB8B7",
"rX c #FFACB2",
"tX c #DF99A2",
"yX c #DCC2B8",
"uX c #E8C4BB",
"iX c #FEC3BD",
"pX c #FCC8B9",
"aX c #FED6B9",
"sX c #FAC6AA",
"dX c #F8BDC2",
"fX c #EDBDC1",
"gX c #EAC6C5",
"hX c #E9C9C7",
"jX c #F5C4C3",
"kX c #FEC3C4",
"lX c #FFCCCB",
"zX c #FAC8C7",
"xX c #EAD2CC",
"cX c #FBD5CC",
"vX c #FCCDD2",
"bX c #EBD5DA",
"nX c #F3D5D5",
"mX c #FFD4D3",
"MX c #F3DAD6",
"NX c #FDDBDC",
"BX c #F9D7D8",
"VX c #ECCED2",
"CX c #FFE2DC",
"ZX c #FFE9DB",
"AX c #FFE2CC",
"SX c #FEDDE4",
"DX c #FEDCE8",
"FX c #FFE4E3",
"GX c #FFEAE5",
"HX c #FDE7EA",
"JX c #FFF3F4",
"KX c #FFF5FD",
"LX c #FFF9FD",
"PX c #FFEDF1",
/* pixels */
"                                                                                                                                                      ",
"                                                                                                                                                      ",
"                                DXbXbXFXbXHXDXbXNXMXMXnXnXxXxXxXhXhXuXhXhXhXhXhXgXgXhXhXhXgXhXgXgXzX  hXhXhX                                          ",
"                                SXSXDXFXBXBXNXCXBXmXmXmXmXmXmXvXlXlXzXzXuXjXpXzXjXjXjXjXjXjXjXjXdXjXjXfXqXfX                                          ",
"                                CXMXNXBXJXGXZXCXZXCXCXCXCXNXNXNXvXvXvXvXcXlXlXlXvXvXvXvXmXvXmXvXNXmXmXCXCXCXCXCXGXFXFXGXHXHX                          ",
"                                  xXxXxX5X5X0X6X0X0X2X0X0X7X0X7X7X7X7X7X7X7X7X7X4XtX8X8X4X8X8X4X>X>X>X>X4X>X4X<X>X4X4X3X3X5X                          ",
"  uX1XpXsXaXaXcXZX                      }.W.W.XXW._.`.W._._.XXXX.X.X.X.X%X.X.X.X%X%X$X%X&X$X.X$X+X#X$X:X#X$X%X>X%X%X%X#X6X                            ",
"  $.l >.!.:.Q.^.`.'.'.'.,X2X2XsXaXaXcXcXaXaXaXaXaXsXsXpXpXkXlXlXvXvXvXvXvXmXmXBXvXNXvXmXNXNXNXNXCXmXcXcXcXcXlXzXlXlXzXvX                              ",
"  E.c [ /.J.J.J.J.] J.] F.] ` !.F.!.!.!.!./.^././.'.4.M / / 4.@.&.&.&.&.,.,.,.,.,.,.,.<.<.<.<.2.2.2.2.{.2.OX1.2.<.{.eX5X                              ",
"  3.j [ H.S.Z.Z.C.C.H.C.J.H.G.J.[ G.[ [ [ /.J.J.[ [ K b / m m X.X.X.X...............| #.| #.| ..X.....| #.n | <.*X-XkXgX                              ",
"  _.j [ H.H.H.C.H.J.C.C.G.G.G.G.J.J.G.G.G.G.G.C././.H K X.0 = * = - - ; = * - * * * * * * * * O O * * O O o O #.=X9XlXVX                              ",
"  _.c [ J.S.C.Q W W I W W W Q W Q W { ! { ! ! [ [ ~ H M / 0 * 4 - - @ - @ - - @ - @ - 1 - 1 - 1 - + + + + O O ;.=X9XlXhX                              ",
"    j [ H.S.V.! K.K.S.A.f.f.V.! Q a.! ! E ~ T ~ ~ F F ( / 0 - @ 4 3 4 4 3 4 3 4 3 2 3 4 3 2 2 2 2 - 2 ; + - * ;.=XrXzXxX                              ",
"    j ) H.S.V.! S.S.K.D.U.U.K.K.K.K.K.S.K.D.D.d.d.F P ( / 0 2 4 4 4 3 4 3 4 4 4 3 4 3 4 3 4 4 3 6 2 5 2 - - * ;.=XrXzXxX                              ",
"    j ) C.V.d.! ' Q S.S.(.L.(.(.U.U.U.U.U.h.D.n.R F P H / 0 ; @ 4 4 3 3 4 4 2 2 2 2 2 2 2 2 3 3 2 3 2 4 + + * <.=XrXkXnX                              ",
"    j ) G.V.A.A.Z.' ` l e e N e N N Z Z Z Z T.D.! P P H / 0 ; 4 4 3 3 4 3 3 3 2 2 2 2 2 2 2 2 2 4 4 1 1 4 + O 1.*XrXkX                                ",
"    j ) [ V.C.! ! G.^ - o o . . o o . . . o 9 K.d.P P H ^ 0 ; 3 3 3 2 3 3 3 3 3 3 5 3 2 3 5 6 5 2 2 2 2 2 - * 1.=XrXkX                                ",
"    j ) [ C.Z.! d.A.:.9 y & & % $ # X X . . < !.V.L P H ^ 0 2 3 3 3 3 3 2 6 2 3 3 2 6 3 6 2 3 2 2 2 2 2 2 - = 1.oXeXvX                                ",
"    c ) H.Z.V.! f.' :.i f a & a f % # X X . < ^.Z.L F H ^ 0 ; 6 3 3 2 6 3 3 2 6 2 3 3 5 2 6 6 5 2 1 3 3 2 ; = 1.oXeXdX                                ",
"    c ) H.V.d.e.f.a.:.i s f f f f % # # # . + ^.Z.L F H ^ 0 , t 3 3 3 6 2 3 3 3 3 3 6 6 2 6 5 5 2 2 3 2 2 - ; {.oXwXdX                                ",
"    c H H.V.d.e.d.A.:.i d d d d f & $ $ # . < ^.C.L G J ^ 0 , r 3 3 3 3 2 6 6 3 6 6 6 3 6 6 6 6 2 2 3 3 2 ; = {.*XdXzX                                ",
"    c H C.V.d.! s.Q :.u g d d a s & $ $ $ . < ^.Z.I L J ^ q , 6 3 3 3 3 3 3 3 6 6 6 6 6 6 6 6 6 2 2 2 3 2 ; ; {.@XdXdX                                ",
"    b H Z.V.d.e.a.T.Q.u g g g d d f % % % X < ^.J.G L J ^ q , r 6 3 3 3 6 3 3 6 6 6 6 2 6 6 6 6 2 2 2 3 2 1 ; XXoXdXdX                                ",
"    b K H.V.d.! j.` N.p h g g g s s y & & + < ^.H.G L L ^ q 0 5 6 3 3 3 2 3 6 6 6 6 6 6 6 6 6 6 5 2 2 3 2 - , OX*XdXdX                                ",
"    S K H.S.f.e.s.Q F.N p p A p p p y 9 9 + : Q.A.L L G ^ q > 6 6 3 6 3 6 6 3 6 6 6 6 6 6 6 5 6 2 2 3 3 2 1 7 {.oXdXfX                                ",
"    S V A.D.f.E s.E J.^.^.^.^.^.Q.Q.Q.Q.:.Q.N.K.f.I I G ` q , 6 6 3 2 3 6 6 6 6 6 6 5 6 5 6 5 5 2 3 3 3 2 1 7 OXOXdXfX                                ",
"    S V A.S.d.R R R E ! Q a.Q Q B.a.T.B.B.B.A.T R U U L ^ q , r 6 6 6 3 6 3 3 6 5 r 5 5 5 5 5 5 5 2 3 t 1 - 7 .XOXdXdX                                ",
"    #.V C.Z.s.R 8.R R e.Y 0.9.7.Y Y Y E 6.} 5.7.R U U L _ q , r t 6 6 3 3 5 6 6 5 5 r 5 5 r r 5 5 5 3 3 2 1 7 OXoXdXdX                                ",
"    D b C.V.s.8.0.8.u.i.t.r.r.r.t.t.u.q.g.r.p.u.s.U I L _ q > 6 6 6 6 2 6 3 6 6 5 5 r r 6 6 5 5 3 5 3 3 2 - 8 @X@XdXjX                                ",
"    >.v A.D.d.7.0.0.i.v.M.c.M.M.x.i.v.v.z.b.z.g.j.U I G _ q , 5 6 6 6 6 6 6 3 6 5 6 5 5 6 6 5 5 5 2 3 6 2 1 8 @X@XkXdX                                ",
"    >.x B.Y.K.e.0.9.g.v.x.c.z.y.x.l.c.x.l.l.c.b.w.I U W ] q > 5 6 6 2 6 6 6 6 6 6 6 6 6 6 6 6 5 6 5 3 6 4 1 8 @X@XdXjX                                ",
"    ,.x F.(.U.6.u.7.r.k.p.r.y.t.r.l.r.y.y.l.p.l.w.U ~ W _ q > 5 6 6 6 2 6 3 6 6 6 6 5 6 6 6 6 6 6 3 6 t 3 2 8 @X@XkXzX                                ",
"    3.z F.(.U.a.j.6.9.u.r.y.r.p.y.t.y.y.y.y.y.i.w.U U W ] l ; 3 3 3 3 3 3 6 6 6 6 6 3 6 3 6 6 5 6 5 6 6 2 - i @XoXkXgX                                ",
"    `.z [ (.P.6.q.7.p.g.i.y.l.y.y.y.y.y.y.y.y.i.w.T U I _ q > 3 3 6 6 6 2 6 6 3 6 6 6 6 6 6 6 5 6 5 5 3 2 - i *X*XkXgX                                ",
"    &Xl /.~.K.f.w.w.h.P.z.l.l.l.l.l.y.l.y.y.y.i.w.Y U ~ ] q = 3 3 3 3 2 3 6 6 6 6 6 6 6 3 6 6 5 2 5 6 6 2 - i =XoXkXgX                                ",
"      w ` ].].L.f.e.P.Y.m.x.c.p.l.l.y.y.l.l.y.i.q.Y E W ] l > 3 3 3 3 3 2 3 6 3 6 6 6 6 6 6 6 6 5 5 6 6 2 ; u =X=XkXgX                                ",
"      A 3.,XsXQ.B.6.P.R.R.m.m.c.c.p.c.l.y.l.l.z.u.Y R ~ ] l > 2 3 3 3 3 3 3 6 6 6 6 6 6 6 6 6 6 6 5 r 5 3 - u {.-XkXhX                                ",
"      ;.4X-.3XzX~.6.P.Y.R.R.R.M.x.c.l.l.l.l.l.i.u.E E ~ ] l > 2 3 3 6 6 3 6 6 6 6 6 6 6 6 6 5 6 5 5 6 3 4 * u OX%XkXxX                                ",
"      h {.[.[.uX).a.D.Y.I.I.R.R.m.x.c.l.l.l.l.z.u.E R ~ ] l > 2 3 3 3 2 2 3 3 6 6 6 6 6 6 6 6 6 5 2 5 6 4 * u oX@XlX                                  ",
"      o.OX[.=.*.^.T.D.Y.I.m.m.m.m.x.c.c.c.l.l.l.t.Y R ~ ] l > 2 3 3 6 3 6 3 6 6 5 6 6 6 6 6 6 6 5 2 6 6 4 * u =X%XlX                                  ",
"      h [.tX=.>X!.a.h.I.I.m.I.I.m.M.x.x.l.l.l.i.t.Y R ! [ l = 3 4 6 3 6 6 3 6 6 3 6 6 6 6 5 6 6 2 5 3 2 4 - u oX%XmX                                  ",
"      u n %X=.`.K.j.j.P.n.m.m.m.m.M.b.x.x.l.l.z.t.7.R E [ l = 7 6 6 3 3 3 3 6 6 3 3 6 3 6 6 6 6 5 5 t 2 4 - n oX%XNX                                  ",
"      O.W.`.$.E.L.9.g.n.n.m.m.m.M.M.b.z.v.z.z.i.t.E R E A.l = 4 4 6 6 4 3 6 6 6 6 6 6 6 6 6 6 6 5 5 6 3 4 - n OX8XGX                                  ",
"      +.E.'.E.U.j.9.i.n.m.n.x.x.M.x.b.v.v.z.v.i.t.8.R E ] z = 2 6 6 6 5 6 3 3 6 2 2 6 3 6 6 6 6 5 6 6 3 4 - n oX0X                                    ",
"      A c ~.K.h.t.t.u.h.z.c.c.c.x.b.v.v.v.v.v.g.u.8.8.E J.x > 4 6 6 3 3 3 7 6 3 6 6 6 6 3 6 5 6 5 5 6 3 4 - n OX0X                                    ",
"      A C V.v.9.t.t.j.h.v.c.z.x.z.v.g.g.g.i.g.i.0.8.8.E J.x = 2 4 3 3 3 3 3 6 6 6 2 6 3 5 6 6 6 6 5 3 3 4 -  .oXqX                                    ",
"      A V K.u.t.r.r.w.j.g.i.g.g.v.v.v.h.g.g.g.g.0.8.w.E J.x = 4 6 6 3 3 6 3 6 3 6 6 6 6 3 3 6 5 6 6 3 4 4 -  .oX6X                                    ",
"      #.B S.i.r.r.w.7.Y 5.Y 5.5.5.5.5.5.5.5.5.Y 6.E q.E J.x = 4 3 6 3 3 3 6 6 6 2 6 6 6 6 6 6 5 5 3 2 3 4 1  .oX7X                                    ",
"      %.B S.i.y.w.w.t.i.0.k.k.k.r.k.k.k.6.k.9.9.u.7.w.E J.B O 3 t 6 6 3 3 6 3 3 6 3 3 6 3 6 3 3 6 3 3 2 4 ; | *X;X                                    ",
"      %.B S.g.r.w.w.t.l.l.y.z.i.i.i.i.z.z.i.i.g.g.8.w.e.A.x * r 6 t 6 3 3 3 6 6 6 3 6 3 t 6 6 6 3 3 2 2 7 ; | {.8XjX                                  ",
"      E.B S.g.t.u.w.u.l.b.x.n.b.x.x.M.x.b.b.b.b.i.0.w.6.A.B = r 3 6 6 6 6 3 3 3 6 3 6 3 6 6 6 6 3 3 2 2 2 ; X.*X9X                                    ",
"      `.v V.h.t.w.w.0.y.z.z.b.z.c.c.c.c.z.c.z.z.y.7.w.e.D.B = 3 3 6 6 6 6 3 5 6 6 3 3 3 6 6 2 3 3 3 2 2 5 , ..{.9X                                    ",
"      `.B V.g.i.t.0.7.t.y.y.l.y.y.l.l.l.y.y.y.y.t.7.0.e.V.B = 6 3 6 3 6 6 6 6 2 6 3 6 3 5 3 3 3 3 3 2 2 2 * X.*XrX                                    ",
"      ,Xx d.g.y.0.0.7.9.y.l.y.l.y.l.l.l.l.y.y.t.t.0.0.q.A.B = r 6 6 6 6 3 6 3 6 6 3 3 6 6 6 3 5 t 3 2 2 2 * @.{.eX                                    ",
"      >Xx d.j.u.0.w.9.9.l.l.l.l.l.l.c.l.l.y.y.y.t.9.q.e.B.B = r 3 3 6 3 6 6 6 6 6 2 3 5 6 3 6 2 4 3 2 4 2 ; #.{.eX                                    ",
"      2Xx ! h.t.0.u.7.0.i.i.y.z.l.l.l.c.l.i.i.y.u.8.8.f.Z.C = t 6 6 6 6 3 6 6 6 6 6 3 3 6 6 6 6 3 t 1 2 1 * #.*XeX                                    ",
"        z ! v.t.0.i.Y 0.y.y.z.y.l.l.z.l.i.i.i.u.w.0.q.e.A.C = r t 6 3 3 6 3 6 2 6 6 5 6 6 6 3 3 3 2 2 1 2 = @.`.eX                                    ",
"        z ! h.t.0.u.8.0.i.i.z.y.y.l.l.l.z.i.i.i.u.w.q.e.A.C = 6 6 6 5 6 6 6 6 6 6 6 5 5 6 6 6 6 3 2 2 2 4 ; @.OXeX                                    ",
"        x ~ h.t.0.w.7.w.u.i.y.y.l.l.l.l.i.y.i.y.0.0.0.7.A.C = 5 6 6 5 6 5 5 5 5 5 6 5 5 6 6 5 6 3 3 2 ; 2 * @.OXeX                                    ",
"        x W h.i.r.u.8.8.g.i.i.y.y.y.l.l.y.y.y.u.t.0.0.q.j.C = 2 5 5 5 5 5 5 6 5 5 5 5 5 5 5 5 5 3 3 2 2 4 * @.*XwX                                    ",
"        v W h.r.0.u.q.8.j.g.i.y.y.y.i.i.i.y.u.i.0.0.0.8.d.C > 2 5 5 5 5 5 6 5 5 5 5 6 5 5 5 5 5 3 3 3 1 1 * &.oXwX                                    ",
"        x W h.i.9.w.q.R w.u.i.i.i.z.i.i.i.i.u.u.0.0.w.q.d.C > 7 5 5 5 5 5 5 6 6 5 6 5 5 5 5 5 6 3 3 2 1 2 - &.=XwX                                    ",
"        x G h.i.r.w.q.R w.p.0.u.u.t.w.p.w.q.9.0.q.q.8.q.Z.C > 6 r 5 5 5 5 5 6 6 6 5 5 5 6 5 5 6 3 3 2 2 4 * &.=XiX                                    ",
"        b G h.t.9.9.Y T T T T T } } } 5.5.5.5.Y q.0.q.q.Z.C > 7 5 5 5 5 6 5 5 5 6 6 6 5 6 5 5 6 3 3 2 - 1 * &.-XwXjX                                  ",
"        S K g.t.t.t.t.i.g.g.g.g.p.b.z.z.b.n.n.h.p.r.t.7.D.C , 6 5 5 , , 5 5 5 5 5 5 5 5 5 5 5 5 2 2 1 + : O ;.-XdXdX                                  ",
"        S K D.y.y.l.z.z.v.g.g.v.n.P.b.b.b.n.P.j.g.u.0.7.B.C > , 5 , 5 5 , 7 2 , , 7 , 5 5 5 , 2 5 2 4 - 1 * ;.-XwXeX                                  ",
"        D C K.p.9.r.t.u.0.t.r.p.p.P.j.h.n.h.D.B.f.e.q.e.' C > = * * * * * * - * * O * + * * - - * ; ; O O = ;.-XkXuX                                  ",
"        $.c N.N.B.N.L.L.B.L.L.L.^.).).).(.).).~.!.B.F.F.Q.` A +.o.o.o.O.O.O.O.*.O.O.*.*.*.*.*.*.-.-.-.*.*.*.XX&XeXfX                                  ",
"                                              ZXZXcXcXmXAXFXHXKXJXJXJXJXJXJXJXJXJXJXKXJXJXJXJXJXJXPX        SXvXvXvX                                  ",
"                                  xXyXyXyXuXyXgXVXVXnXBXnXbXbXbXnXnXnXnXMXMXMXMXMXMXnXnXbXBXBXnXMXMXMXMXMXNXNXNXvXdXBXVXbXVXnXVXbX                    ",
"                                   X}.|.#X}.}.:X#X#X#X:X#X#X#X|.#X#X#X$X$X#X#X:X:X:X3X>X4X4X4X4X6X6X3X3X6X3X6XtX6X4X4X3X3X3X4X3X X                    ",
"                                              GXGXGXGXGXGXZXGXFXCXFXCXCXCXFXNXNXFXCXNXCXFXFXFXFXNXGXGXGXPXHXHXHXDXSXHXSXSXSXNXNXNXJX                  ",
"                    3X}._.W.yX:X>X<X<X9X1X;X;X1X9X<X1X;X1X9X1X9X9X9XeXiXeXiXwXpXiXwXwXiXwXwXiXeXiXpXiXeXpXpXiXwXwXkXzXzXaXzXpXpXiXiXpXjXuXuXuXuXyXxXMX",
"                    yX0X$X`.uX6X4X4X8XtX-X-X@X%X&X&XOXXX2.1.3._.1.XX+X+X.X&X.X+X.X.X.X.X.X.X.X.X+X+X$X+X>X4X4X>X$X$X:X:X:X#X#X$X#X$X#X$X#X#X:X:X3XyXxX",
"                        uX5X  HXFXHXDXDXDXHXFXFXCXFXCXNXSXSXNXFXFXFXGXJXGXJXJXJXGXJXJXJXJXJXJXKXJXLXJXJXLXLXJXLXKXKXLXLXLXLXKXJX                      "
};
