/* XPM */
static char *_beb7cda9e6d4427992008d7abab51e5a14fcSw9iScalsr1[] = {
/* columns rows colors chars-per-pixel */
"75 75 239 2 ",
"   c None",
".  c #0C0207",
"X  c #140504",
"o  c #150806",
"O  c #1B0904",
"+  c #12050A",
"@  c #1B0B0A",
"#  c #180908",
"$  c #1C0F12",
"%  c #210D05",
"&  c #260C08",
"*  c #24120C",
"=  c #2B150B",
"-  c #2A170C",
";  c #341B0C",
":  c #281612",
">  c #361E13",
",  c #382514",
"<  c #271527",
"1  c #432C18",
"2  c #49331B",
"3  c #543519",
"4  c #432A0B",
"5  c #6C3A14",
"6  c #4B3623",
"7  c #573B26",
"8  c #563637",
"9  c #472934",
"0  c #75352B",
"q  c #4F1C1E",
"w  c #5C431C",
"e  c #68451A",
"r  c #5C422A",
"t  c #5C4633",
"y  c #684727",
"u  c #6C522C",
"i  c #775626",
"p  c #6A5234",
"a  c #785837",
"s  c #724A31",
"d  c #7C6135",
"f  c #3B2B45",
"g  c #5B2C4A",
"h  c #583550",
"j  c #62394D",
"k  c #6A3553",
"l  c #663754",
"z  c #713A57",
"x  c #622C52",
"c  c #575359",
"v  c #67455A",
"b  c #76455B",
"n  c #735746",
"m  c #7E6448",
"M  c #786558",
"N  c #67496A",
"B  c #7A4D72",
"V  c #786C6E",
"C  c #95312A",
"Z  c #9A3730",
"A  c #8D2D2C",
"S  c #8A5013",
"D  c #9C691F",
"F  c #B26F18",
"G  c #855A29",
"H  c #865C36",
"J  c #925233",
"K  c #88642C",
"L  c #956828",
"P  c #9D732B",
"I  c #89683A",
"U  c #956B34",
"Y  c #98743B",
"T  c #A47B39",
"R  c #A5722E",
"E  c #CB7C10",
"W  c #866847",
"Q  c #956943",
"!  c #957343",
"~  c #9B7C4B",
"^  c #987748",
"/  c #8B6E55",
"(  c #88735A",
")  c #977C56",
"_  c #8F7144",
"`  c #A57B49",
"'  c #A97C5A",
"]  c #895779",
"[  c #844D69",
"{  c #89796C",
"}  c #957A66",
"|  c #897E76",
" . c #866870",
".. c #8E5641",
"X. c #9F813D",
"o. c #AC8229",
"O. c #B4832B",
"+. c #B5892E",
"@. c #AC873A",
"#. c #B78936",
"$. c #BB923B",
"%. c #BD9C3E",
"&. c #C38019",
"*. c #C58A27",
"=. c #C89527",
"-. c #C8973A",
";. c #D39B37",
":. c #CA922B",
">. c #DDA839",
",. c #DDAE34",
"<. c #E7AC37",
"1. c #E4B639",
"2. c #EAAF30",
"3. c #F2C53C",
"4. c #9D814C",
"5. c #9B8045",
"6. c #9D8759",
"7. c #A38245",
"8. c #A3844C",
"9. c #AC8849",
"0. c #B48C44",
"q. c #BB8E43",
"w. c #B48C4B",
"e. c #BC9444",
"r. c #B8964B",
"t. c #A48956",
"y. c #AB8C55",
"u. c #A78859",
"i. c #B18C55",
"p. c #AD9257",
"a. c #B99857",
"s. c #AF9049",
"d. c #B8A057",
"f. c #9B8068",
"g. c #9A8877",
"h. c #8E8077",
"j. c #A58B69",
"k. c #B69866",
"l. c #A69477",
"z. c #B39B79",
"x. c #AB916F",
"c. c #B9A367",
"v. c #BAA478",
"b. c #C39B45",
"n. c #C59C55",
"m. c #CBA749",
"M. c #D4AB4B",
"N. c #D7A745",
"B. c #D8B549",
"V. c #C9A757",
"C. c #D4AD57",
"Z. c #D9B657",
"A. c #CEB45F",
"S. c #E7AD42",
"D. c #EABB4C",
"F. c #E7B847",
"G. c #F2BC4B",
"H. c #EBBC51",
"J. c #E3BA56",
"K. c #C69B64",
"L. c #C4A464",
"P. c #CDAC62",
"I. c #C9A865",
"U. c #D4AC68",
"Y. c #CFB568",
"T. c #D2B364",
"R. c #D8B869",
"E. c #C8AB72",
"W. c #DAB972",
"Q. c #E5BB6D",
"!. c #DFC35B",
"~. c #E8C24D",
"^. c #F4C54C",
"/. c #E4C254",
"(. c #EDC353",
"). c #E6C35D",
"_. c #ECC45B",
"`. c #EDCC5C",
"'. c #E3CB5C",
"]. c #F4CC5B",
"[. c #F6C956",
"{. c #EED25B",
"}. c #F5D35C",
"|. c #FDD45C",
" X c #FCDB5C",
".X c #F9D655",
"XX c #F7D745",
"oX c #FFE45D",
"OX c #FFE656",
"+X c #DDC368",
"@X c #E4C263",
"#X c #E4C36C",
"$X c #EBCA6D",
"%X c #E8C967",
"&X c #F7CD68",
"*X c #F4D662",
"=X c #FCD464",
"-X c #FEDC64",
";X c #F4D26B",
":X c #FBD56B",
">X c #FEDC6C",
",X c #F4DA69",
"<X c #ECC973",
"1X c #E6C778",
"2X c #F3CE78",
"3X c #F3D374",
"4X c #FCD574",
"5X c #F5DA75",
"6X c #FEDC74",
"7X c #F5D47B",
"8X c #FED67D",
"9X c #FEDB7C",
"0X c #F3D87C",
"qX c #ECD36F",
"wX c #FFE264",
"eX c #FFE26B",
"rX c #FFEA6A",
"tX c #FFE274",
"yX c #FFE973",
"uX c #FFE27C",
"iX c #FFE97B",
"pX c #8E5A81",
"aX c #916C85",
"sX c #988B84",
"dX c #958984",
"fX c #A8988B",
"gX c #AA9B92",
"hX c #B8A58A",
"jX c #B7A895",
"kX c #BDB49A",
"lX c #D4BC8E",
"zX c #FFD782",
"xX c #FFDA82",
"cX c #FDDD8A",
"vX c #F6D683",
"bX c #EBCA81",
"nX c #FEE182",
"mX c #FDE689",
"MX c #E2D5A9",
/* pixels */
"                                                                              jX@.+.O.k.                                                              ",
"                                                                              hXB.,Xm.#.t.                                                            ",
"                                                                              jX+.!.qXr.L Y                                                           ",
"                                                                              hX$.m.Z.'.T 5 U                                                         ",
"                                                                              a..XnXmXmX7XY 5 H                                                       ",
"                                                                              V.oXyXiXmXmX5X7.y s                                                     ",
"                                                                              b.`.,XrXrXyXiXtX).` H gX                                                ",
"                                                                              7 6 r p 0.'.rXrXeXwX%X0./                                               ",
"                                                                            v l k k g 9 8 T *XeX-X-X-XZ.!                                             ",
"                                                                        aXN x x g g z [ b 9 a @XeX-X.X.XH.^                                           ",
"                                                                      aXpXpXB B B N l g z ] l a ,XiX:XD.^.;.j.                                        ",
"                                                                      aXv < < < f N aXpXg k ] k a.iX6X%XS.<.!                                         ",
"                                                                      V ; i K i , : < N aXl k B b %XwX}.<.*.(                                         ",
"                                                                      a -.`.*X'.B.@.e > h aXl k z ` ~.m.y.hX                                          ",
"                                                                  f.Y (.,XtXnXuX;XD.>.R 3 v [ k z n z.                                                ",
"                                                              | y R  X6XuXnXmXnXmX7X(.<.:.7 v b z                                                     ",
"                                                          sXI T N.].5XnXnXnXxXcXcXmXcX;XS.#.9 b ]                                                     ",
"                                                        ` -.].-XtX9X9X9XxXxXxXcXcXcXcXcX6X1.L 8                                                       ",
"                                                    / $.[.>X6X9X6XxX9XxXxXcXxXcXxXcXcXmXmX=X<.^                                                       ",
"                                                } T G.>X4X9X9X9X9X9XxX9XxXzXxXxXzXcXxXcXcXxX|.T                                                       ",
"                                              ^ ;.=X6X6X9X9X9X9XxXzXxXxXxXcXzXcXzXzXzXcXxXcX4X:.H                                                     ",
"                                            Q F.=X4X6X6X9X8X8XzXzXxXzXxXzXxXxXxXzXcXcXzXxXxX8XS.F }                                                   ",
"                                          I H.=X>X6X4X6X8X8X9XzXzXzX9XzXzXzXzXcXzXzXzXzXxXcXcX&XS.L                                                   ",
"                                        I D.=X>X4X6X6X9X4X9X8X8X9XzX9XxXzX9XzXxXxXxXzXzXzXxXzXxX:XS.G                                                 ",
"                                      W F.=X>X6X4X6X9X6X6X9XzX8XzXzX9XzX9X9XxXuXxX0XxXxXxXzXcXzXzX].:.W                                               ",
"                                    M R [.-X4X6X6X$X~ T.9X9X9XzX9X9XzXxX9X0Xy.L.nX5X9XxXzXzXzXzXzX7XG.P sX                                            ",
"                                    P G.=X6X>XtX6Xa.% 8.iX9X9XzXzX9X9X9XxXW.= r 5XuX9XzXzXzXzXxXzX9X=X>.K                                             ",
"                                  ! [.:X6X6XeX5X@XI # V.tX6X9X9X8XzX9X9XtXV.* 2 T.qX9XzXxXzXxXzXzX9X8XG.*.j.                                          ",
"                                l.M.-X6X6X6X@Xa > % @ 4.%XuX9X9X9X9XuX9X5.1 X # : 7 #XxXzXzXzXzXzXxXzX&X<.L                                           ",
"                                ` =X-X6X6X$Xr + . + . $ r <X9XxXzXxXuX8.$ + # # + : W.nXzXzXzXxXxXzXxXzXD.E )                                         ",
"                              gXN.:X>XtXtX~ # 3 e @ = # p 0X9X9X9XnX1X, O , ; , Y p 1XnX9XzXzXzXzXzXzXzX&X2.P                                         ",
"                              t.].>X6X6X5Xr = &.F = L r.%XiX9X6X9XiXY.* - F e 2 ;X0XnX9XzXzXzXzXzXzXzXzX4XG.&.}                                       ",
"                              $.=X>X6XuX0X7 % D D % e.yXiXuX9X6X9XuXR.: ; E S ; qXuXuXxXzX9XzXzXzXzXzXzX9X[.;.U                                       ",
"                            hXN.-X6X6XuX6XI . - = * Z.rXtXiX6XuX9XuX3X6 o i e ; #XiXuXuX9X9X8XzXzXzXzX9XzX;XG.*.l.                                    ",
"                            x.^.>X6X6X6XuX$Xu # X % 5.qXyXuX6X9XnXuX9Xa.* o % - P.iXiXtX9X9X8X9XzX9XzXzXzX8X&XD.)                                     ",
"                M d X.5./ h.^ .X>XtX6X6X6XtX;XT * o # 7 A.uXuXC.R.uXuX9X8., o O 1 4.qXiX9X9X9XzXzXzXzX9XzX9X4X&Xr.          h.dX                      ",
"              a %. XwX-X,Xy.U |.*X#X9X6XtXtXeXV.* 2 e o 6 qXtXW.I.uXxXuXtXR.i @ o o r Y.uX9X8X1XI.zXxXzXzX9X9X>XJ.g.  M I 0.b.$.U a                   ",
"            d J.-X-X XwXwXY P .X;XV.5X9X5XuXtX9.O o.3.w . s.>X7X0X9XuXuXuXyXd.= 3 ; . 2 1X6X4XbX' 7XxXzXxXxX<Xa.` G ` Z.>X6X>X:X=XJ.H sX              ",
"          a _.wX-XwX XwX*Xy T |.:XT.6X6XyXyXrXI o %.XXd . d 6X#X3X9X6XnX9XtXn.; +.&.$ . ^ uX6XcXv.1XzXzXxXxXP.9.w.@X4X4X>X6X4X6X6X-X@XH               ",
"        m /.wX>XwX X].F.N., P |.>X%X6XuXA.r.%Xu - ~.3.2 . d xX0X4X9XxX6XuXiXL.- O.1.; . a 9X9X7Xk.Q.cX9XxX9XxXxX9X4X4X6X4X4X6X4X4X6X6XJ.Q             ",
"    lXl.m.>XeXeX-Xe.y s 7 O G .XeXiXuXvXu & 3 ; * i 3 # O 8.nXxX9X9XzX9X3X3XI.- G D * + 4.nXnXzX0XxXcXxXxXxXxX9X9X4X>X6X9X4X>X4X4X9X6X>XC.j.          ",
"z.Z.*X5XeXeXtX*X0.{         y (.>XtXiX1X, % O % O @ # X 1 #XnX9X9X9XxXnX~ 3 7 O & % + 2 #XnX9X9XxXxXzXxXzXxXxX9X9XC.9.q.` U n.&X6X9X9X6X>Xn.          ",
"u.>.wXtXtXtX-Xa.            M >.wXtXiX#Xy 1 & % O % > u P.uXxX9X9X9XxXnXu.X X o o * r P.nXxX9X9XxXxXxXxXxXxXxXnX%Xi 8        .I C.4X9X9X4X=Xn.        ",
"MXb.>XyXiXyX(.v.            sX#.>XtX6XuX;X%XI O 2 9.R.0XnXxX9X9X9X9XzXnXbX8.I - ; w.3XnXnX9XxXzXxXxXxXzXxX9XxXvXq.a sX          m C.uX6X9X4X[.M.w.fX  ",
"d.'.,XiXnX}.*Xv.              #.-X6XtXtXiXtX! X Y iXnXuX9X9X9X8X8X8XzXxX9XnX<X, 6 qXuXnX9XzXzXzXzXxXzXxXxX9XcXV.;.Y               / ;X6X9X6X>X>X-X/.-.",
"  k.,.wXZ.+.XXc.              8.*X>X6X6X6XiXp.2 a.nXuX9X9X8XzX9X8X8X9X9XnXnXcXa.L.cXnX9X9X9X9XzXzXzXzXzX9XxX9X~.D.W               k.].uX6X6X6X6X_.M.#.",
"    =.=.c.kXj.                l.J.wX6XuXuXuXuX0X9X9X9X9X9X8X8X8XzX9X8XzX9XnXxXnXuXuXxXxX9XzXzXzXzXzXxX9XzXxX4X.X$.|               M.^.=X6X6XeXwX%.(   ",
"    k.                          e.>X>XtXtXtX9XuX6X6X9X9X8X8X8X8X8X8X9X9XnX9XvXnXxX9X9X9X9X8X9XzXzXzX9XzX9X9X[.F.u               lX2.>.e.:XeX).(.}.hX  ",
"                                f.'.eX6XtX1X_ 8.#XxXuX9X8X8X8X8X8XzXzXzXU.R J I.nX9X9XcX2X0X9X9X9XzXzX9X0X:X^.P V                 ;.k.  R.oXm.U d.    ",
"                                  s.-X>XtX#XI 8 a vXnX9X9X9X9X8X8XzXxXbXZ C C 0 U.nXY.) z.k.vXxXzX9X9XcX5X^.;.t                         hX1.1.kX      ",
"                                  hXM.wX>X6X:XT.` i.E.bXxXzXzX9X9X9XcXK.A Z Z Z ..lXp > E.k.U.xXzX9XuX9XD.>.e                             v.P.        ",
"                                    j.~.wXtX6X6X8X<XI.p.u.L.W.2X7XvXzX' A 0 q 0 s w.U.L.#X8X0XxX9X9XuX:X%.e aX                                        ",
"                                      p.[.>XtXtX6X9X6X8X1XE.k.p.y.i.i.Q Q ^ u.U.<X8X9XuX6X9X9X6XuXuXtX(.i  .                                          ",
"                                        p.{.>XtXtX>X6X6X6X6XxXcXcXvXvXvX8X9X8X9X9X6X6X6X9X6X6X6X6XeX(.I dX                                            ",
"                                        ( i !.wX>XtX6X6XuX6X$XU.Q.2X4X4X4X4X6X9X9X6X9X6X6XuX6X6X>XZ.^                                                 ",
"                                      v.%.y , @._.-X>XeXtXtXtX3XQ.$X8X8X6X4X9X9X9X9X9XuX6XtXtX@XT (                                                   ",
"                                      B.1.+.: $ n w.J.&X=X=X-X-XeX6X6X9X9X9X9X6X6X6X6X6X;XC.I y 0.I.                                                  ",
"                                    V.}.~.=.4 c     g.~ q.C._.|.|.-X=X:X-X>X>X>X:X%XC.i.W : & @.}.H.k.                                                ",
"                                  z.`. X1.+.u             l.f.8.9.q.q.b.q.w.9.` ^ } fX    c 7 N.[.|.N.jX                                              ",
"                                  d.eX,X~.o.                                                t #.F.-X=Xr.                                              ",
"                                l.'.eXeX/.^                                                   L (.-X>XJ.k.                                            ",
"                                y.wXrXwXM.hX                                                  / (.>X>X=Xb.                                            ",
"                                M.rXeXwXr.                                                    gXM.>X6X>XJ.z.                                          ",
"                              sXV.eXeX-Xt.                                                      a.>X>X>X].i.                                          ",
"                              { L /.wX}.f.                                                      x.-X>XeX-Xw.                                          ",
"                              h.!.wXyX*X6.                                                      z.`.>XeXeXe.                                          ",
"                              g.`.eXrX*X4.                                                      jX@XeX6XM.K                                           ",
"                              h.Y.tXrXrX7.                                                        Z.eXeX4Xa.                                          ",
"                            v.t.4.Y.eXyXb.hX                                                      Z.>XeXyX@X                                          ",
"                        v.B.oXyX5X+X`.oXJ.u.                                                      Z.wXwX+X8.W                                         ",
"                        B.OXoXoXwXrX*X.X[.!                                                       B.wX XZ.'./.7.(                                     ",
"                        m..X.X.X.X X}.(.-.m                                                       a.oXwXyXwXoXwXe.|                                   ",
"                        hX6.t.t.t.t.u.x.gX                                                        gXr.@X-XoXoXOX XI                                   ",
"                                                                                                      } 6.V.!.%XB.a                                   ",
"                                                                                                          fXp y 7 '                                   "
};
